<svg width="175" height="68" viewBox="0 0 175 68" fill="none" xmlns="http://www.w3.org/2000/svg">
<path d="M87.076 16.4978V27.6278L88.756 28.2578V28.5728H84.766V28.2578L86.446 27.6278V14.5028L85.186 14.1878V13.8728H87.811C88.539 13.8728 89.113 14.0268 89.533 14.3348C89.967 14.6288 90.338 15.0698 90.646 15.6578L95.224 24.4148L98.731 15.6578C98.969 15.0418 99.291 14.5938 99.697 14.3138C100.103 14.0198 100.726 13.8728 101.566 13.8728H103.771V14.1878L102.511 14.5028V27.9428L103.771 28.2578V28.5728H97.786V28.2578L99.046 27.9428V16.4978L94.111 28.7828H93.481L87.076 16.4978ZM109.763 28.8878C108.517 28.8878 107.558 28.6218 106.886 28.0898C106.214 27.5578 105.878 26.8788 105.878 26.0528C105.878 25.5068 105.997 24.9678 106.235 24.4358C106.333 24.1838 106.459 23.9528 106.613 23.7428C107.187 23.6028 107.81 23.4768 108.482 23.3648C109.994 23.1128 111.331 22.9588 112.493 22.9028V22.2728C112.493 20.7188 112.304 19.6478 111.926 19.0598C111.548 18.4718 110.967 18.1778 110.183 18.1778C109.889 18.1778 109.637 18.2128 109.427 18.2828L109.133 18.3878V21.5378L108.86 21.6008C108.636 21.6288 108.447 21.6428 108.293 21.6428C107.817 21.6428 107.432 21.5028 107.138 21.2228C106.858 20.9288 106.718 20.5438 106.718 20.0678C106.718 19.4238 107.04 18.8778 107.684 18.4298C108.342 17.9818 109.315 17.7578 110.603 17.7578C111.695 17.7578 112.633 17.9538 113.417 18.3458C114.215 18.7238 114.817 19.2558 115.223 19.9418C115.643 20.6138 115.853 21.3908 115.853 22.2728V27.9428L117.113 28.2578V28.5728H115.223C114.383 28.5728 113.732 28.3138 113.27 27.7958C113.074 27.5858 112.92 27.3198 112.808 26.9978C112.612 27.3478 112.381 27.6628 112.115 27.9428C111.485 28.5728 110.701 28.8878 109.763 28.8878ZM110.603 28.1528C111.121 28.1528 111.59 27.8728 112.01 27.3128C112.164 27.1028 112.325 26.8228 112.493 26.4728V23.4278C111.849 23.4278 111.233 23.4628 110.645 23.5328C110.211 23.5888 109.917 23.6238 109.763 23.6378C109.693 23.7918 109.623 24.0018 109.553 24.2678C109.413 24.7998 109.343 25.3248 109.343 25.8428C109.343 26.6268 109.462 27.2078 109.7 27.5858C109.938 27.9638 110.239 28.1528 110.603 28.1528ZM123.318 33.0878C122.072 33.0878 121.057 32.9758 120.273 32.7518C119.489 32.5278 118.922 32.2408 118.572 31.8908C118.236 31.5408 118.068 31.1698 118.068 30.7778C118.068 30.3018 118.208 29.9168 118.488 29.6228C118.782 29.3428 119.167 29.2028 119.643 29.2028C119.755 29.2028 119.958 29.2238 120.252 29.2658L120.483 29.3078V32.2478C120.651 32.3038 120.917 32.3738 121.281 32.4578C121.925 32.5978 122.534 32.6678 123.108 32.6678C124.816 32.6678 126.062 32.4228 126.846 31.9328C127.644 31.4568 128.043 30.8618 128.043 30.1478C128.043 29.2378 127.203 28.7828 125.523 28.7828H121.533C120.483 28.7828 119.678 28.5658 119.118 28.1318C118.558 27.6978 118.278 27.1448 118.278 26.4728C118.278 25.8008 118.607 25.2058 119.265 24.6878C119.531 24.4918 119.867 24.3168 120.273 24.1628C119.755 23.8408 119.377 23.4628 119.139 23.0288C118.915 22.5808 118.803 22.0488 118.803 21.4328C118.803 20.3968 119.195 19.5638 119.979 18.9338C120.763 18.2898 121.911 17.9678 123.423 17.9678C124.081 17.9678 124.683 18.0378 125.229 18.1778C125.789 18.3038 126.237 18.4788 126.573 18.7028C126.685 18.4648 126.832 18.2548 127.014 18.0728C127.434 17.6528 127.952 17.4428 128.568 17.4428C129.044 17.4428 129.443 17.6108 129.765 17.9468C130.087 18.2688 130.248 18.6958 130.248 19.2278C130.248 19.6338 130.136 19.9628 129.912 20.2148C129.702 20.4668 129.429 20.5928 129.093 20.5928C128.939 20.5928 128.764 20.5788 128.568 20.5508L128.358 20.4878V17.9678C127.994 17.9678 127.651 18.1428 127.329 18.4928C127.203 18.6188 127.091 18.7938 126.993 19.0178C127.693 19.6338 128.043 20.4388 128.043 21.4328C128.043 22.4688 127.651 23.3088 126.867 23.9528C126.083 24.5828 124.935 24.8978 123.423 24.8978C122.415 24.8978 121.505 24.7228 120.693 24.3728L120.273 24.5828C120.133 24.6668 120.028 24.7508 119.958 24.8348C119.888 24.9048 119.853 24.9958 119.853 25.1078C119.853 25.3458 119.972 25.5278 120.21 25.6538C120.462 25.7798 120.903 25.8428 121.533 25.8428H125.523C126.573 25.8428 127.392 26.1508 127.98 26.7668C128.582 27.3688 128.883 28.2158 128.883 29.3078C128.883 30.4278 128.414 31.3378 127.476 32.0378C126.552 32.7378 125.166 33.0878 123.318 33.0878ZM123.423 24.4778C123.885 24.4778 124.242 24.2538 124.494 23.8058C124.76 23.3578 124.893 22.5668 124.893 21.4328C124.893 20.2988 124.76 19.5078 124.494 19.0598C124.242 18.6118 123.885 18.3878 123.423 18.3878C122.961 18.3878 122.597 18.6118 122.331 19.0598C122.079 19.5078 121.953 20.2988 121.953 21.4328C121.953 22.5668 122.079 23.3578 122.331 23.8058C122.597 24.2538 122.961 24.4778 123.423 24.4778ZM130.688 28.2578L131.948 27.9428V18.7028L130.688 18.3878V18.0728H132.578C133.404 18.0728 134.055 18.3388 134.531 18.8708C134.713 19.0808 134.867 19.3398 134.993 19.6478C135.189 19.2838 135.42 18.9688 135.686 18.7028C136.316 18.0728 137.1 17.7578 138.038 17.7578C138.822 17.7578 139.522 17.9258 140.138 18.2618C140.768 18.5838 141.258 19.0108 141.608 19.5428C141.958 20.0748 142.133 20.6348 142.133 21.2228V27.9428L143.393 28.2578V28.5728H140.663C139.403 28.5728 138.773 27.9428 138.773 26.6828V21.2228C138.773 20.3408 138.612 19.6688 138.29 19.2068C137.982 18.7308 137.618 18.4928 137.198 18.4928C136.666 18.4928 136.19 18.7728 135.77 19.3328C135.588 19.5708 135.434 19.8508 135.308 20.1728V27.9428L136.568 28.2578V28.5728H130.688V28.2578ZM149.694 28.8878C148.91 28.8878 148.203 28.7268 147.573 28.4048C146.957 28.0688 146.474 27.6348 146.124 27.1028C145.774 26.5708 145.599 26.0108 145.599 25.4228V18.7028L144.339 18.3878V18.0728H147.069C148.329 18.0728 148.959 18.7028 148.959 19.9628V25.4228C148.959 26.3048 149.113 26.9838 149.421 27.4598C149.743 27.9218 150.114 28.1528 150.534 28.1528C151.052 28.1528 151.521 27.8728 151.941 27.3128C152.095 27.1028 152.256 26.8228 152.424 26.4728V18.7028L151.164 18.3878V18.0728H157.044V18.3878L155.784 18.7028V28.6778H155.574C154.552 28.6778 153.775 28.3978 153.243 27.8378C153.005 27.5858 152.837 27.3058 152.739 26.9978C152.543 27.3478 152.312 27.6628 152.046 27.9428C151.416 28.5728 150.632 28.8878 149.694 28.8878ZM163.247 28.8878C162.379 28.8878 161.602 28.6988 160.916 28.3208C160.58 28.1388 160.307 27.9428 160.097 27.7328C159.873 28.0408 159.628 28.2788 159.362 28.4468C159.236 28.5308 159.096 28.6078 158.942 28.6778H158.417V25.1078H159.257C159.439 25.6958 159.705 26.2418 160.055 26.7458C160.797 27.8238 161.721 28.3628 162.827 28.3628C163.415 28.3628 163.856 28.2228 164.15 27.9428C164.458 27.6488 164.612 27.2288 164.612 26.6828C164.612 26.2208 164.402 25.8358 163.982 25.5278C163.576 25.2058 162.932 24.8138 162.05 24.3518C161.294 23.9738 160.678 23.6378 160.202 23.3438C159.74 23.0358 159.341 22.6578 159.005 22.2098C158.683 21.7478 158.522 21.2088 158.522 20.5928C158.522 19.7528 158.879 19.0738 159.593 18.5558C160.321 18.0238 161.434 17.7578 162.932 17.7578C163.674 17.7578 164.36 17.9538 164.99 18.3458C165.298 18.5278 165.564 18.7168 165.788 18.9128C165.97 18.6608 166.215 18.4228 166.523 18.1988C166.761 18.0588 166.901 17.9818 166.943 17.9678H167.468V21.5378H166.628C166.418 20.9358 166.159 20.3968 165.851 19.9208C165.151 18.8288 164.318 18.2828 163.352 18.2828C162.974 18.2828 162.652 18.4228 162.386 18.7028C162.12 18.9828 161.987 19.3328 161.987 19.7528C161.987 20.2848 162.211 20.7328 162.659 21.0968C163.107 21.4468 163.786 21.8528 164.696 22.3148C165.438 22.6928 166.026 23.0288 166.46 23.3228C166.908 23.6028 167.286 23.9528 167.594 24.3728C167.916 24.7928 168.077 25.2828 168.077 25.8428C168.077 27.8728 166.467 28.8878 163.247 28.8878Z" fill="white"/>
<path d="M85.1861 49.6706L86.4461 49.3556V35.9156L85.1861 35.6006V35.2856H91.1711V35.6006L89.9111 35.9156V49.4606H94.4261C94.4261 48.5786 94.6501 47.7596 95.0981 47.0036C95.2941 46.6816 95.5251 46.4156 95.7911 46.2056H96.4211V49.9856H85.1861V49.6706ZM101.888 50.3006C100.642 50.3006 99.6835 50.0346 99.0115 49.5026C98.3395 48.9706 98.0035 48.2916 98.0035 47.4656C98.0035 46.9196 98.1225 46.3806 98.3605 45.8486C98.4585 45.5966 98.5845 45.3656 98.7385 45.1556C99.3125 45.0156 99.9355 44.8896 100.607 44.7776C102.119 44.5256 103.456 44.3716 104.618 44.3156V43.6856C104.618 42.1316 104.429 41.0606 104.051 40.4726C103.673 39.8846 103.092 39.5906 102.308 39.5906C102.014 39.5906 101.762 39.6256 101.552 39.6956L101.258 39.8006V42.9506L100.985 43.0136C100.761 43.0416 100.572 43.0556 100.418 43.0556C99.9425 43.0556 99.5575 42.9156 99.2635 42.6356C98.9835 42.3416 98.8435 41.9566 98.8435 41.4806C98.8435 40.8366 99.1655 40.2906 99.8095 39.8426C100.467 39.3946 101.44 39.1706 102.728 39.1706C103.82 39.1706 104.758 39.3666 105.542 39.7586C106.34 40.1366 106.942 40.6686 107.348 41.3546C107.768 42.0266 107.978 42.8036 107.978 43.6856V49.3556L109.238 49.6706V49.9856H107.348C106.508 49.9856 105.857 49.7266 105.395 49.2086C105.199 48.9986 105.045 48.7326 104.933 48.4106C104.737 48.7606 104.506 49.0756 104.24 49.3556C103.61 49.9856 102.826 50.3006 101.888 50.3006ZM102.728 49.5656C103.246 49.5656 103.715 49.2856 104.135 48.7256C104.289 48.5156 104.45 48.2356 104.618 47.8856V44.8406C103.974 44.8406 103.358 44.8756 102.77 44.9456C102.336 45.0016 102.042 45.0366 101.888 45.0506C101.818 45.2046 101.748 45.4146 101.678 45.6806C101.538 46.2126 101.468 46.7376 101.468 47.2556C101.468 48.0396 101.587 48.6206 101.825 48.9986C102.063 49.3766 102.364 49.5656 102.728 49.5656ZM115.968 50.3006C115.044 50.3006 114.239 50.1326 113.553 49.7966C112.881 49.4606 112.363 48.9986 111.999 48.4106C111.635 47.8226 111.453 47.1576 111.453 46.4156V40.0106H109.983V39.4856H111.453V38.4356C111.453 37.1756 112.083 36.5456 113.343 36.5456H114.813V39.4856H117.753V40.0106H114.813V46.4156C114.813 47.7036 114.946 48.5856 115.212 49.0616C115.478 49.5376 115.87 49.7756 116.388 49.7756C116.892 49.7756 117.333 49.5306 117.711 49.0406C118.089 48.5506 118.278 47.8856 118.278 47.0456H118.803C118.803 48.0816 118.544 48.8866 118.026 49.4606C117.508 50.0206 116.822 50.3006 115.968 50.3006ZM119.962 49.6706L121.222 49.3556V40.1156L119.962 39.8006V39.4856H122.692C123.952 39.4856 124.582 40.1156 124.582 41.3756V49.3556L125.842 49.6706V49.9856H119.962V49.6706ZM122.692 38.2256C122.272 38.2256 121.922 38.0856 121.642 37.8056C121.362 37.5256 121.222 37.1756 121.222 36.7556C121.222 36.3356 121.362 35.9856 121.642 35.7056C121.922 35.4256 122.272 35.2856 122.692 35.2856C123.112 35.2856 123.462 35.4256 123.742 35.7056C124.022 35.9856 124.162 36.3356 124.162 36.7556C124.162 37.1756 124.022 37.5256 123.742 37.8056C123.462 38.0856 123.112 38.2256 122.692 38.2256ZM132.559 50.3006C131.635 50.3006 130.83 50.1326 130.144 49.7966C129.472 49.4606 128.954 48.9986 128.59 48.4106C128.226 47.8226 128.044 47.1576 128.044 46.4156V40.0106H126.574V39.4856H128.044V38.4356C128.044 37.1756 128.674 36.5456 129.934 36.5456H131.404V39.4856H134.344V40.0106H131.404V46.4156C131.404 47.7036 131.537 48.5856 131.803 49.0616C132.069 49.5376 132.461 49.7756 132.979 49.7756C133.483 49.7756 133.924 49.5306 134.302 49.0406C134.68 48.5506 134.869 47.8856 134.869 47.0456H135.394C135.394 48.0816 135.135 48.8866 134.617 49.4606C134.099 50.0206 133.413 50.3006 132.559 50.3006ZM141.183 50.3006C140.399 50.3006 139.692 50.1396 139.062 49.8176C138.446 49.4816 137.963 49.0476 137.613 48.5156C137.263 47.9836 137.088 47.4236 137.088 46.8356V40.1156L135.828 39.8006V39.4856H138.558C139.818 39.4856 140.448 40.1156 140.448 41.3756V46.8356C140.448 47.7176 140.602 48.3966 140.91 48.8726C141.232 49.3346 141.603 49.5656 142.023 49.5656C142.541 49.5656 143.01 49.2856 143.43 48.7256C143.584 48.5156 143.745 48.2356 143.913 47.8856V40.1156L142.653 39.8006V39.4856H148.533V39.8006L147.273 40.1156V50.0906H147.063C146.041 50.0906 145.264 49.8106 144.732 49.2506C144.494 48.9986 144.326 48.7186 144.228 48.4106C144.032 48.7606 143.801 49.0756 143.535 49.3556C142.905 49.9856 142.121 50.3006 141.183 50.3006ZM154.106 50.3006C153.28 50.3006 152.545 50.0906 151.901 49.6706C151.257 49.2366 150.746 48.6066 150.368 47.7806C149.99 46.9406 149.801 45.9256 149.801 44.7356C149.801 42.9436 150.214 41.5716 151.04 40.6196C151.88 39.6536 153.007 39.1706 154.421 39.1706C155.093 39.1706 155.681 39.3106 156.185 39.5906C156.395 39.6886 156.612 39.8286 156.836 40.0106V35.9156L155.576 35.6006V35.2856H158.306C159.566 35.2856 160.196 35.9156 160.196 37.1756V49.3556L161.456 49.6706V49.9856H159.566C158.726 49.9856 158.075 49.7266 157.613 49.2086C157.417 48.9986 157.263 48.7326 157.151 48.4106C156.969 48.7606 156.738 49.0756 156.458 49.3556C155.828 49.9856 155.044 50.3006 154.106 50.3006ZM154.946 49.5656C155.464 49.5656 155.933 49.2856 156.353 48.7256C156.507 48.5156 156.668 48.2356 156.836 47.8856V40.6406C156.682 40.4866 156.521 40.3466 156.353 40.2206C155.975 39.9406 155.611 39.8006 155.261 39.8006C154.659 39.8006 154.19 40.1506 153.854 40.8506C153.532 41.5506 153.371 42.8456 153.371 44.7356C153.371 46.5416 153.518 47.8016 153.812 48.5156C154.12 49.2156 154.498 49.5656 154.946 49.5656ZM168.494 50.3006C166.702 50.3006 165.309 49.8106 164.315 48.8306C163.321 47.8366 162.824 46.4716 162.824 44.7356C162.824 43.6016 163.041 42.6146 163.475 41.7746C163.909 40.9346 164.511 40.2906 165.281 39.8426C166.065 39.3946 166.961 39.1706 167.969 39.1706C168.977 39.1706 169.859 39.3596 170.615 39.7376C171.385 40.1156 171.973 40.6266 172.379 41.2706C172.799 41.9006 173.009 42.6006 173.009 43.3706C173.009 43.7206 172.974 44.0216 172.904 44.2736L172.799 44.6306C172.197 44.7566 171.546 44.8616 170.846 44.9456C169.376 45.1556 167.892 45.2606 166.394 45.2606C166.394 46.8846 166.618 48.0466 167.066 48.7466C167.514 49.4326 168.13 49.7756 168.914 49.7756C169.46 49.7756 169.964 49.6496 170.426 49.3976C170.902 49.1316 171.273 48.7886 171.539 48.3686C171.819 47.9346 171.959 47.4936 171.959 47.0456H172.484C172.484 47.6056 172.316 48.1376 171.98 48.6416C171.644 49.1456 171.175 49.5516 170.573 49.8596C169.971 50.1536 169.278 50.3006 168.494 50.3006ZM166.394 44.7356C167.29 44.7356 168.018 44.7006 168.578 44.6306C168.816 44.6166 169.068 44.5816 169.334 44.5256C169.348 44.4556 169.383 44.3016 169.439 44.0636C169.509 43.7136 169.544 43.3426 169.544 42.9506C169.544 41.7886 169.39 40.9416 169.082 40.4096C168.774 39.8636 168.403 39.5906 167.969 39.5906C166.919 39.5906 166.394 41.3056 166.394 44.7356Z" fill="white"/>
<path d="M88.2295 64.0867C90.0655 64.0867 90.5335 62.6647 90.5335 60.8827C90.5335 59.1187 90.0385 57.8587 88.2295 57.8587H86.0065V64.0867H88.2295ZM89.8225 60.8827C89.8225 62.2327 89.5255 63.4747 88.2295 63.4747H86.6995V58.4707H88.2295C89.5255 58.4707 89.8225 59.5327 89.8225 60.8827ZM91.6903 64.0867H92.3653V59.5867H91.6903V64.0867ZM91.6903 58.5697H92.3653V57.7867H91.6903V58.5697ZM96.665 59.6677C96.665 59.6677 95.711 59.4967 95.036 59.4967C94.217 59.4967 93.416 59.8207 93.416 60.8107C93.416 61.7107 93.902 61.8997 94.919 62.0617C95.9 62.2147 96.134 62.3317 96.134 62.7997C96.134 63.4117 95.738 63.5737 95 63.5737C94.541 63.5737 93.515 63.4207 93.515 63.4207L93.479 64.0057C93.479 64.0057 94.487 64.1767 95.063 64.1767C96.143 64.1767 96.809 63.8257 96.809 62.7727C96.809 61.8997 96.386 61.6747 95.261 61.4857C94.307 61.3237 94.091 61.2067 94.091 60.7837C94.091 60.2527 94.514 60.0997 95.072 60.0997C95.648 60.0997 96.647 60.2437 96.647 60.2437L96.665 59.6677ZM99.5256 59.4967C98.1846 59.4967 97.6536 60.1267 97.6536 61.7557C97.6536 63.5197 98.0766 64.1767 99.5076 64.1767C99.9216 64.1767 100.759 64.0507 100.759 64.0507L100.732 63.4927C100.732 63.4927 100.012 63.5737 99.6696 63.5737C98.5536 63.5737 98.3466 63.0877 98.3466 61.7557C98.3466 60.5497 98.6256 60.0997 99.6606 60.0997C100.003 60.0997 100.723 60.1807 100.723 60.1807L100.75 59.6317C100.75 59.6317 99.9396 59.4967 99.5256 59.4967ZM103.438 59.4967C102.016 59.4967 101.512 60.2347 101.512 61.7827C101.512 63.4207 101.926 64.1767 103.438 64.1767C104.959 64.1767 105.364 63.4207 105.364 61.7827C105.364 60.2347 104.869 59.4967 103.438 59.4967ZM103.438 63.5917C102.376 63.5917 102.205 63.0607 102.205 61.7827C102.205 60.5317 102.484 60.0817 103.438 60.0817C104.401 60.0817 104.671 60.5317 104.671 61.7827C104.671 63.0607 104.509 63.5917 103.438 63.5917ZM105.963 59.5867L107.232 64.0867H108.582L109.851 59.5867H109.158L108.069 63.5017H107.736L106.683 59.5867H105.963ZM112.305 63.5827C111.423 63.5827 111.126 63.0787 111.126 62.1157H114.096L114.132 61.6027C114.132 60.1267 113.52 59.4967 112.323 59.4967C111.18 59.4967 110.442 60.1537 110.442 61.8637C110.442 63.3937 110.883 64.1767 112.224 64.1767C112.953 64.1767 113.979 64.0327 113.979 64.0327L113.961 63.5017C113.961 63.5017 112.98 63.5827 112.305 63.5827ZM111.117 61.5757C111.126 60.4867 111.558 60.0637 112.323 60.0637C113.115 60.0637 113.457 60.4597 113.457 61.5757H111.117ZM115.183 64.0867H115.858V60.7837C115.858 60.7837 116.65 60.3427 117.496 60.1717V59.4877C116.632 59.6587 115.849 60.1987 115.849 60.1987V59.5867H115.183V64.0867ZM122.396 61.4677L124.376 57.8587H123.593L122.045 60.7747L120.497 57.8587H119.714L121.703 61.4677V64.0867H122.396V61.4677ZM126.21 59.4967C124.788 59.4967 124.284 60.2347 124.284 61.7827C124.284 63.4207 124.698 64.1767 126.21 64.1767C127.731 64.1767 128.136 63.4207 128.136 61.7827C128.136 60.2347 127.641 59.4967 126.21 59.4967ZM126.21 63.5917C125.148 63.5917 124.977 63.0607 124.977 61.7827C124.977 60.5317 125.256 60.0817 126.21 60.0817C127.173 60.0817 127.443 60.5317 127.443 61.7827C127.443 63.0607 127.281 63.5917 126.21 63.5917ZM132.045 59.5867V63.2407C132.045 63.2407 131.478 63.5737 130.812 63.5737C129.975 63.5737 129.867 63.1687 129.867 61.9267V59.5867H129.192V61.9357C129.192 63.5917 129.453 64.1767 130.713 64.1767C131.37 64.1767 132.045 63.7717 132.045 63.7717V64.0867H132.72V59.5867H132.045ZM134.018 64.0867H134.693V60.7837C134.693 60.7837 135.485 60.3427 136.331 60.1717V59.4877C135.467 59.6587 134.684 60.1987 134.684 60.1987V59.5867H134.018V64.0867ZM138.576 58.4797H140.493V64.0867H141.177V58.4797H143.076V57.8587H138.576V58.4797ZM143.071 64.0867H143.746V60.7837C143.746 60.7837 144.538 60.3427 145.384 60.1717V59.4877C144.52 59.6587 143.737 60.1987 143.737 60.1987V59.5867H143.071V64.0867ZM148.99 59.5867V63.2407C148.99 63.2407 148.423 63.5737 147.757 63.5737C146.92 63.5737 146.812 63.1687 146.812 61.9267V59.5867H146.137V61.9357C146.137 63.5917 146.398 64.1767 147.658 64.1767C148.315 64.1767 148.99 63.7717 148.99 63.7717V64.0867H149.665V59.5867H148.99ZM152.629 63.5827C151.747 63.5827 151.45 63.0787 151.45 62.1157H154.42L154.456 61.6027C154.456 60.1267 153.844 59.4967 152.647 59.4967C151.504 59.4967 150.766 60.1537 150.766 61.8637C150.766 63.3937 151.207 64.1767 152.548 64.1767C153.277 64.1767 154.303 64.0327 154.303 64.0327L154.285 63.5017C154.285 63.5017 153.304 63.5827 152.629 63.5827ZM151.441 61.5757C151.45 60.4867 151.882 60.0637 152.647 60.0637C153.439 60.0637 153.781 60.4597 153.781 61.5757H151.441ZM161.157 57.9397C161.157 57.9397 160.014 57.7597 159.276 57.7597C158.061 57.7597 157.269 58.2277 157.269 59.4337C157.269 60.6217 157.917 60.9277 159.204 61.2067C160.221 61.4047 160.59 61.6027 160.59 62.3047C160.59 63.1687 160.14 63.5557 159.258 63.5557C158.619 63.5557 157.395 63.3937 157.395 63.3937L157.323 63.9697C157.323 63.9697 158.556 64.1677 159.294 64.1677C160.527 64.1677 161.283 63.6277 161.283 62.2507C161.283 61.1617 160.734 60.8557 159.492 60.5767C158.403 60.3337 157.971 60.1987 157.971 59.3887C157.971 58.6867 158.439 58.3717 159.321 58.3717C159.843 58.3717 161.094 58.5247 161.094 58.5247L161.157 57.9397ZM164.028 63.5827C163.146 63.5827 162.849 63.0787 162.849 62.1157H165.819L165.855 61.6027C165.855 60.1267 165.243 59.4967 164.046 59.4967C162.903 59.4967 162.165 60.1537 162.165 61.8637C162.165 63.3937 162.606 64.1767 163.947 64.1767C164.676 64.1767 165.702 64.0327 165.702 64.0327L165.684 63.5017C165.684 63.5017 164.703 63.5827 164.028 63.5827ZM162.84 61.5757C162.849 60.4867 163.281 60.0637 164.046 60.0637C164.838 60.0637 165.18 60.4597 165.18 61.5757H162.84ZM166.961 64.0867H167.636V57.6247H166.961V64.0867ZM169.854 60.1717H171.159V59.5867H169.854V59.1907C169.854 58.3537 170.016 58.1377 170.52 58.1377C170.79 58.1377 171.294 58.1557 171.294 58.1557L171.303 57.5977C171.303 57.5977 170.7 57.5347 170.394 57.5347C169.512 57.5347 169.179 57.8857 169.179 59.1817V59.5867H168.612V60.1717H169.179V64.0867H169.854V60.1717Z" fill="white"/>
<path d="M0 22.5769V63.2069C0 63.9435 0.650669 64.5389 1.46094 64.5389H15.0084C15.8125 64.5389 16.4693 63.9435 16.4693 63.2069V22.5769C15.7511 22.4173 15.5547 21.8403 15.0084 21.2449H1.46094C0.656808 21.2449 0 21.8403 0 22.5769Z" fill="white"/>
<path fill-rule="evenodd" clip-rule="evenodd" d="M45.8968 49.5307V23.7433H45.903C47.7322 24.4369 48.5916 22.5156 48.1312 21.6562H60.9052C61.7155 21.6562 62.3661 22.2517 62.3661 22.9883V48.0698H75.3181C76.0547 48.0698 76.6501 48.7266 76.6501 49.5307V63.0781C76.6501 63.8884 76.0547 64.5391 75.3181 64.5391H47.2288C46.8796 64.5391 46.5621 64.3914 46.3247 64.1504C46.06 63.9094 45.8968 63.5759 45.8968 63.207V63.0873C45.8968 63.0843 45.8968 63.0812 45.8968 63.0781V49.5307C45.8968 49.5307 45.8968 49.5307 45.8968 49.5307Z" fill="white"/>
<path d="M71.8688 0C70.7025 1.12333 47.3582 21.6562 32.0183 37.4196C31.3861 38.0703 30.3548 38.2053 29.7594 37.5301L15.77 21.7115C15.5061 21.4107 15.1071 21.2388 14.6835 21.2388H1.43074C0.288996 21.2388 -0.367811 22.4174 0.301273 23.2584L29.3727 59.8861C29.9988 60.6719 31.3247 60.5614 31.7667 59.6774" fill="white"/>
<path d="M36.0399 18.2321C36.1197 21.9397 33.2653 24.9106 29.5454 24.9966C25.7703 25.0825 22.7871 22.2036 22.7134 18.3917C22.6398 14.6657 25.5187 11.7377 29.3245 11.664C32.9829 11.5965 35.9601 14.5061 36.0399 18.2321Z" fill="white"/>
</svg>
