<svg width="20" height="20" viewBox="0 0 20 20" fill="none" xmlns="http://www.w3.org/2000/svg">
<path d="M12.53 3.84402L12.53 3.84414C12.3656 4.19226 12.5149 4.60707 12.8624 4.77167L12.8626 4.77175C15.2309 5.89096 16.7538 8.30692 16.7412 10.9258C16.7209 14.6436 13.6906 17.6545 9.97793 17.6541L9.94145 17.6541C9.94132 17.6541 9.9412 17.6541 9.94107 17.6541C6.21243 17.6351 3.19394 14.5852 3.21233 10.8556C3.22636 8.2475 4.69443 5.92505 7.04512 4.79275C7.39228 4.62556 7.53689 4.20849 7.37038 3.86218L7.37027 3.86194C7.20258 3.51434 6.78584 3.3709 6.44044 3.53626L6.43999 3.53648C3.60707 4.90145 1.83535 7.70446 1.81792 10.8488L1.81792 10.8489C1.79622 15.3475 5.43665 19.0256 9.93441 19.0481H9.93541H9.9783C14.4562 19.0481 18.1109 15.4173 18.1348 10.9333V10.9331C18.1498 7.7737 16.3148 4.86106 13.4584 3.51148C13.3712 3.4702 13.2797 3.4491 13.1897 3.44536C12.9189 3.43409 12.6538 3.5824 12.53 3.84402ZM9.97521 0.950635C9.5904 0.950635 9.27838 1.26265 9.27838 1.64746V11.0438C9.27838 11.4287 9.5901 11.7414 9.97521 11.7414C10.3606 11.7414 10.6724 11.4288 10.6724 11.0438V1.64746C10.6724 1.26255 10.3603 0.950635 9.97521 0.950635Z" fill="white" stroke="white" stroke-width="0.4"/>
</svg>
