<svg width="24" height="24" viewBox="0 0 24 24" fill="none" xmlns="http://www.w3.org/2000/svg">
<path d="M16.6547 1.82532H7.58127C6.83802 1.82532 6.23523 2.42785 6.23523 3.17136V16.8562H18.0008V3.17136C18.0008 2.42785 17.3982 1.82532 16.6547 1.82532ZM8.02703 5.45009C7.89123 5.35782 7.81841 5.20803 7.81841 5.0554C7.81841 4.96287 7.8451 4.86933 7.90107 4.78718L8.66274 3.66814C8.81099 3.45022 9.10771 3.39397 9.32565 3.54218C9.5436 3.69043 9.59985 3.9874 9.4516 4.20511L8.68993 5.32411C8.54169 5.54208 8.24497 5.59831 8.02703 5.45009ZM11.5559 4.41659L9.32019 7.70161C9.17195 7.91956 8.87495 7.97604 8.65728 7.82783C8.52146 7.73529 8.44839 7.58525 8.44839 7.43262C8.44839 7.34009 8.47508 7.24681 8.53105 7.16464L10.767 3.87964C10.9153 3.66169 11.212 3.60521 11.4299 3.75368C11.6479 3.9019 11.7044 4.19862 11.5559 4.41659ZM6.23523 17.7114V20.8199C6.23523 21.5632 6.83802 22.166 7.58127 22.166H16.6547C17.3982 22.166 18.0008 21.5632 18.0008 20.8199V17.7114H6.23523ZM13.011 20.5701H11.2488C10.8552 20.5701 10.5362 20.2511 10.5362 19.8574C10.5362 19.6605 10.616 19.4825 10.7448 19.3534C10.8738 19.2246 11.0519 19.1448 11.2488 19.1448H13.011C13.4047 19.1448 13.7237 19.4638 13.7237 19.8574C13.7237 20.2511 13.4047 20.5701 13.011 20.5701Z" fill="#EA8127"/>
</svg>
