<svg width="22" height="22" viewBox="0 0 22 22" fill="none" xmlns="http://www.w3.org/2000/svg">
<path fill-rule="evenodd" clip-rule="evenodd" d="M17.875 5.95833C17.5103 5.95833 17.1606 6.1032 16.9027 6.36106C16.6449 6.61892 16.5 6.96866 16.5 7.33333V8.25H19.25V7.33333C19.25 6.96866 19.1051 6.61892 18.8473 6.36106C18.5894 6.1032 18.2397 5.95833 17.875 5.95833ZM19.25 9.16667H16.5V16.7292L17.875 18.7917L19.25 16.7292V9.16667ZM2.75 4.125V17.875C2.75 18.2397 2.89487 18.5894 3.15273 18.8473C3.41059 19.1051 3.76033 19.25 4.125 19.25H14.2083C14.573 19.25 14.9227 19.1051 15.1806 18.8473C15.4385 18.5894 15.5833 18.2397 15.5833 17.875V4.125C15.5833 3.76033 15.4385 3.41059 15.1806 3.15273C14.9227 2.89487 14.573 2.75 14.2083 2.75H4.125C3.76033 2.75 3.41059 2.89487 3.15273 3.15273C2.89487 3.41059 2.75 3.76033 2.75 4.125ZM9.16667 6.875C9.16667 6.75344 9.21495 6.63686 9.30091 6.55091C9.38686 6.46496 9.50344 6.41667 9.625 6.41667H13.2917C13.4132 6.41667 13.5298 6.46496 13.6158 6.55091C13.7017 6.63686 13.75 6.75344 13.75 6.875C13.75 6.99656 13.7017 7.11314 13.6158 7.19909C13.5298 7.28504 13.4132 7.33333 13.2917 7.33333H9.625C9.50344 7.33333 9.38686 7.28504 9.30091 7.19909C9.21495 7.11314 9.16667 6.99656 9.16667 6.875ZM9.625 8.25C9.50344 8.25 9.38686 8.29829 9.30091 8.38424C9.21495 8.4702 9.16667 8.58678 9.16667 8.70833C9.16667 8.82989 9.21495 8.94647 9.30091 9.03242C9.38686 9.11838 9.50344 9.16667 9.625 9.16667H13.2917C13.4132 9.16667 13.5298 9.11838 13.6158 9.03242C13.7017 8.94647 13.75 8.82989 13.75 8.70833C13.75 8.58678 13.7017 8.4702 13.6158 8.38424C13.5298 8.29829 13.4132 8.25 13.2917 8.25H9.625ZM9.16667 12.8333C9.16667 12.7118 9.21495 12.5952 9.30091 12.5092C9.38686 12.4233 9.50344 12.375 9.625 12.375H13.2917C13.4132 12.375 13.5298 12.4233 13.6158 12.5092C13.7017 12.5952 13.75 12.7118 13.75 12.8333C13.75 12.9549 13.7017 13.0715 13.6158 13.1574C13.5298 13.2434 13.4132 13.2917 13.2917 13.2917H9.625C9.50344 13.2917 9.38686 13.2434 9.30091 13.1574C9.21495 13.0715 9.16667 12.9549 9.16667 12.8333ZM9.625 14.2083C9.50344 14.2083 9.38686 14.2566 9.30091 14.3426C9.21495 14.4285 9.16667 14.5451 9.16667 14.6667C9.16667 14.7882 9.21495 14.9048 9.30091 14.9908C9.38686 15.0767 9.50344 15.125 9.625 15.125H13.2917C13.4132 15.125 13.5298 15.0767 13.6158 14.9908C13.7017 14.9048 13.75 14.7882 13.75 14.6667C13.75 14.5451 13.7017 14.4285 13.6158 14.3426C13.5298 14.2566 13.4132 14.2083 13.2917 14.2083H9.625ZM5.5 12.8333V14.2083H6.875V12.8333H5.5ZM5.04167 11.9167H7.33333C7.45489 11.9167 7.57147 11.965 7.65742 12.0509C7.74338 12.1369 7.79167 12.2534 7.79167 12.375V14.6667C7.79167 14.7882 7.74338 14.9048 7.65742 14.9908C7.57147 15.0767 7.45489 15.125 7.33333 15.125H5.04167C4.92011 15.125 4.80353 15.0767 4.71758 14.9908C4.63162 14.9048 4.58333 14.7882 4.58333 14.6667V12.375C4.58333 12.2534 4.63162 12.1369 4.71758 12.0509C4.80353 11.965 4.92011 11.9167 5.04167 11.9167ZM8.11571 7.19904C8.1992 7.1126 8.2454 6.99682 8.24435 6.87665C8.24331 6.75648 8.1951 6.64152 8.11013 6.55654C8.02515 6.47156 7.91019 6.42336 7.79002 6.42232C7.66984 6.42127 7.55407 6.46747 7.46762 6.55096L5.95833 8.06025L5.36571 7.46762C5.27927 7.38414 5.16349 7.33794 5.04332 7.33898C4.92314 7.34003 4.80819 7.38823 4.72321 7.47321C4.63823 7.55819 4.59003 7.67314 4.58898 7.79332C4.58794 7.91349 4.63414 8.02927 4.71763 8.11571L5.95833 9.35642L8.11571 7.19904Z" fill="#EA8127"/>
</svg>
