<svg width="22" height="22" viewBox="0 0 22 22" fill="none" xmlns="http://www.w3.org/2000/svg">
<path d="M11 15.5833C11.4862 15.5833 11.9525 15.3901 12.2963 15.0463C12.6401 14.7025 12.8333 14.2362 12.8333 13.75C12.8333 13.2637 12.6401 12.7974 12.2963 12.4536C11.9525 12.1098 11.4862 11.9166 11 11.9166C10.5137 11.9166 10.0474 12.1098 9.7036 12.4536C9.35978 12.7974 9.16663 13.2637 9.16663 13.75C9.16663 14.2362 9.35978 14.7025 9.7036 15.0463C10.0474 15.3901 10.5137 15.5833 11 15.5833ZM16.5 7.33329C16.9862 7.33329 17.4525 7.52645 17.7963 7.87026C18.1401 8.21408 18.3333 8.6804 18.3333 9.16663V18.3333C18.3333 18.8195 18.1401 19.2858 17.7963 19.6297C17.4525 19.9735 16.9862 20.1666 16.5 20.1666H5.49996C5.01373 20.1666 4.54741 19.9735 4.2036 19.6297C3.85978 19.2858 3.66663 18.8195 3.66663 18.3333V9.16663C3.66663 8.6804 3.85978 8.21408 4.2036 7.87026C4.54741 7.52645 5.01373 7.33329 5.49996 7.33329H6.41663V5.49996C6.41663 4.28438 6.89951 3.1186 7.75905 2.25905C8.6186 1.39951 9.78438 0.916626 11 0.916626C11.6019 0.916626 12.1978 1.03518 12.7539 1.26551C13.31 1.49585 13.8153 1.83345 14.2409 2.25905C14.6665 2.68466 15.0041 3.18992 15.2344 3.74599C15.4647 4.30207 15.5833 4.89807 15.5833 5.49996V7.33329H16.5ZM11 2.74996C10.2706 2.74996 9.57114 3.03969 9.05542 3.55542C8.53969 4.07114 8.24996 4.77061 8.24996 5.49996V7.33329H13.75V5.49996C13.75 4.77061 13.4602 4.07114 12.9445 3.55542C12.4288 3.03969 11.7293 2.74996 11 2.74996Z" fill="#EA8127"/>
</svg>
