<svg width="22" height="22" viewBox="0 0 22 22" fill="none" xmlns="http://www.w3.org/2000/svg">
<g clip-path="url(#clip0_169_233)">
<path d="M18.9269 7.85819C18.927 7.49696 18.8239 7.14322 18.6296 6.83869C18.4353 6.53416 18.158 6.29154 17.8303 6.13944V7.59694L17.0191 8.15382L16.2113 7.59694V6.13601C15.8856 6.28989 15.6103 6.53315 15.4175 6.83744C15.2247 7.14173 15.1224 7.49454 15.1224 7.85476C15.1224 8.21497 15.2247 8.56778 15.4175 8.87207C15.6103 9.17637 15.8856 9.41962 16.2113 9.57351V15.1732C15.8833 15.3251 15.6056 15.5676 15.411 15.8721C15.2164 16.1767 15.113 16.5305 15.113 16.8919C15.113 17.2534 15.2164 17.6072 15.411 17.9118C15.6056 18.2163 15.8833 18.4588 16.2113 18.6107V17.1532L17.0225 16.5963L17.8303 17.1532V18.6107C18.156 18.4568 18.4313 18.2136 18.6241 17.9093C18.8168 17.605 18.9192 17.2522 18.9192 16.8919C18.9192 16.5317 18.8168 16.1789 18.6241 15.8746C18.4313 15.5703 18.156 15.3271 17.8303 15.1732V9.57694C18.1569 9.4235 18.4333 9.18056 18.6274 8.87633C18.8215 8.5721 18.9254 8.21906 18.9269 7.85819ZM8.22938 6.31476L8.1675 5.00163L8.14344 4.46882C7.9735 4.25772 7.87521 3.99797 7.86285 3.72725C7.85049 3.45652 7.92469 3.1889 8.07469 2.96319L8.05407 2.46476L8.00594 1.47132L7.77907 1.52632C6.93773 1.8141 6.20756 2.358 5.69096 3.08174C5.17436 3.80547 4.89723 4.67275 4.89844 5.56194V6.32851H8.22938V6.31476ZM10.1475 5.00507L10.0856 6.31476H13.4063V5.54819C13.4069 4.66104 13.1312 3.79571 12.6174 3.07247C12.1036 2.34923 11.3773 1.804 10.5394 1.51257L10.3125 1.45757L10.2678 2.44757L10.2438 2.94944C10.3935 3.17587 10.4676 3.44398 10.4552 3.71517C10.4429 3.98637 10.3447 4.24664 10.175 4.45851L10.1475 5.00507ZM8.46657 4.98788L8.52844 6.31476H9.78657L9.85188 4.99132V4.74382C9.64312 4.88276 9.39796 4.95688 9.14719 4.95688C8.89643 4.95688 8.65126 4.88276 8.4425 4.74382L8.46657 4.98788ZM8.35657 2.64351C8.58468 2.46339 8.86685 2.36543 9.1575 2.36543C9.44815 2.36543 9.73032 2.46339 9.95844 2.64351V2.43726L10.0169 1.06226H8.28782L8.34969 2.43726L8.35657 2.64351Z" fill="#EA8127"/>
<path d="M9.1575 4.65785C9.35549 4.65785 9.54902 4.5991 9.7136 4.48903C9.87817 4.37896 10.0064 4.22253 10.082 4.03954C10.1576 3.85656 10.1772 3.65526 10.1383 3.46112C10.0995 3.26699 10.0038 3.08875 9.8636 2.949C9.72336 2.80924 9.5448 2.71424 9.35053 2.67603C9.15627 2.63782 8.95503 2.65812 8.77231 2.73436C8.58959 2.8106 8.4336 2.93935 8.32409 3.1043C8.21459 3.26925 8.1565 3.46299 8.15719 3.66098C8.15718 3.79218 8.18308 3.92209 8.2334 4.04326C8.28371 4.16443 8.35744 4.27448 8.45038 4.36709C8.54331 4.45971 8.65361 4.53306 8.77495 4.58296C8.8963 4.63285 9.0263 4.6583 9.1575 4.65785ZM17.9781 18.9269L17.6137 19.0954C17.6412 19.5697 17.6344 19.9891 17.6137 20.2469H15.3794V18.4216C14.993 18.0061 14.7792 17.4593 14.7812 16.8919C14.7795 16.861 14.7795 16.83 14.7812 16.7991C14.6247 16.7195 14.4515 16.6782 14.2759 16.6788H14.0937L14.4375 14.9394C14.7606 15.1044 15.0631 15.2832 15.3347 15.4275C15.4895 15.2455 15.6729 15.0899 15.8778 14.9669C14.6164 14.2206 13.2842 13.6012 11.9006 13.1175V12.0279C12.7403 10.8832 13.2071 9.50775 13.2378 8.08848H13.695C13.7707 8.08848 13.8432 8.05842 13.8967 8.00491C13.9503 7.95141 13.9803 7.87883 13.9803 7.80317V6.92316C13.9803 6.84718 13.9504 6.77425 13.897 6.72019C13.8435 6.66614 13.771 6.63532 13.695 6.63441H4.65094C4.57435 6.63441 4.50091 6.66484 4.44676 6.71899C4.39261 6.77314 4.36219 6.84658 4.36219 6.92316V7.80317C4.36218 7.84092 4.36968 7.87831 4.38423 7.91315C4.39878 7.94799 4.4201 7.9796 4.44696 8.00614C4.47382 8.03268 4.50568 8.05362 4.5407 8.06775C4.57571 8.08189 4.61318 8.08893 4.65094 8.08848H5.10812C5.13122 9.49842 5.59388 10.866 6.43156 12.0004V13.1175C5.12531 13.585 0.969373 15.18 0.343748 17.1222C0.0396257 18.2633 -0.065039 19.4483 0.0343726 20.625C0.043719 20.7095 0.0840219 20.7875 0.147503 20.844C0.210984 20.9005 0.293143 20.9315 0.378123 20.931H17.9437C18.0287 20.9315 18.1109 20.9005 18.1744 20.844C18.2379 20.7875 18.2782 20.7095 18.2875 20.625C18.3384 20.0062 18.3384 19.3842 18.2875 18.7654C18.1878 18.8256 18.0845 18.8796 17.9781 18.9269ZM5.79219 8.08848H12.5262C12.5015 9.37118 12.0787 10.6145 11.3162 11.6463C11.2889 11.6711 11.2657 11.7001 11.2475 11.7322C11.0013 12.0568 10.6861 12.3226 10.3247 12.5104C9.96324 12.6983 9.56457 12.8035 9.1575 12.8185C8.75244 12.8037 8.35565 12.6996 7.99553 12.5136C7.6354 12.3276 7.32085 12.0643 7.07437 11.7425C7.05833 11.708 7.03485 11.6775 7.00562 11.6532C6.24266 10.6188 5.81876 9.37352 5.79219 8.08848ZM11.22 13.1897L9.1575 14.8775L7.11219 13.2207V12.8391C7.69278 13.2969 8.41894 13.53 9.1575 13.4957C9.91579 13.4884 10.6468 13.2118 11.22 12.7154V13.1897ZM4.04937 16.6788C3.75458 16.6797 3.47218 16.7974 3.26405 17.0062C3.05593 17.215 2.93906 17.4977 2.93906 17.7925V20.2469H0.687498C0.630526 19.2653 0.732678 18.2809 0.989998 17.3319C1.22375 16.61 2.2275 15.7816 3.89469 14.9257L4.23844 16.665L4.04937 16.6788ZM5.005 18.535C4.93701 18.535 4.87055 18.5149 4.81402 18.4771C4.75749 18.4393 4.71343 18.3857 4.68741 18.3228C4.6614 18.26 4.65459 18.1909 4.66785 18.1242C4.68112 18.0575 4.71386 17.9963 4.76193 17.9482C4.81 17.9001 4.87125 17.8674 4.93794 17.8541C5.00462 17.8409 5.07373 17.8477 5.13655 17.8737C5.19936 17.8997 5.25304 17.9438 5.29082 18.0003C5.32859 18.0568 5.34875 18.1233 5.34875 18.1913C5.34875 18.2825 5.31253 18.3699 5.24807 18.4344C5.1836 18.4988 5.09617 18.535 5.005 18.535ZM12.6397 16.6788H5.67531L5.42437 14.2416C5.99844 14.0044 6.45562 13.8291 6.70656 13.7432L8.9375 15.5754C8.99843 15.6259 9.07492 15.6538 9.15406 15.6544C9.2332 15.6538 9.30969 15.6259 9.37062 15.5754L11.5912 13.75C11.825 13.8325 12.3028 14.0113 12.8941 14.2554L12.6397 16.6788ZM13.3272 18.535C13.2592 18.535 13.1927 18.5149 13.1362 18.4771C13.0797 18.4393 13.0356 18.3857 13.0096 18.3228C12.9836 18.26 12.9768 18.1909 12.99 18.1242C13.0033 18.0575 13.036 17.9963 13.0841 17.9482C13.1322 17.9001 13.1934 17.8674 13.2601 17.8541C13.3268 17.8409 13.3959 17.8477 13.4587 17.8737C13.5215 17.8997 13.5752 17.9438 13.613 18.0003C13.6508 18.0568 13.6709 18.1233 13.6709 18.1913C13.671 18.2376 13.6616 18.2835 13.6435 18.3261C13.6254 18.3687 13.5988 18.4072 13.5654 18.4394C13.5321 18.4715 13.4925 18.4965 13.4492 18.5129C13.4059 18.5294 13.3597 18.5369 13.3134 18.535H13.3272ZM21.8762 13.3719C21.8928 13.3719 21.9092 13.3686 21.9244 13.3622C21.9397 13.3557 21.9535 13.3463 21.965 13.3345C21.9765 13.3226 21.9856 13.3086 21.9916 13.2931C21.9976 13.2777 22.0005 13.2613 22 13.2447V12.7841C22 12.751 21.9871 12.7191 21.964 12.6954C21.9409 12.6716 21.9094 12.6578 21.8762 12.6569H21.1887V8.18816L21.5119 7.70004L21.3125 6.08098H20.3912L20.2125 7.68973L20.5356 8.17785V12.6466H19.8481C19.815 12.6475 19.7835 12.6613 19.7604 12.685C19.7373 12.7088 19.7244 12.7406 19.7244 12.7738V13.2344C19.7239 13.251 19.7268 13.2674 19.7328 13.2828C19.7388 13.2982 19.7478 13.3123 19.7594 13.3242C19.7709 13.336 19.7847 13.3454 19.8 13.3519C19.8152 13.3583 19.8316 13.3616 19.8481 13.3616H19.9959C20.0125 13.4983 20.0044 13.6369 19.9719 13.7707H19.8481C19.8153 13.7707 19.7838 13.7837 19.7606 13.8069C19.7374 13.8301 19.7244 13.8616 19.7244 13.8944V18.3632C19.7239 18.4455 19.7398 18.527 19.7711 18.6031C19.8023 18.6792 19.8484 18.7484 19.9066 18.8066C19.9648 18.8648 20.0339 18.9108 20.11 18.9421C20.1862 18.9734 20.2677 18.9892 20.35 18.9888H21.3813C21.5419 18.9871 21.6958 18.9238 21.8109 18.8118C21.9261 18.6998 21.9938 18.5478 22 18.3872V13.9185C22 13.8857 21.987 13.8542 21.9638 13.831C21.9405 13.8078 21.9091 13.7947 21.8762 13.7947H21.7525C21.7183 13.6612 21.7102 13.5223 21.7284 13.3857L21.8762 13.3719ZM20.5906 18.0125C20.5957 18.038 20.5951 18.0642 20.5889 18.0894C20.5826 18.1146 20.5708 18.1381 20.5544 18.1582C20.5379 18.1782 20.5172 18.1944 20.4938 18.2055C20.4703 18.2166 20.4447 18.2224 20.4187 18.2224C20.3928 18.2224 20.3672 18.2166 20.3437 18.2055C20.3203 18.1944 20.2996 18.1782 20.2831 18.1582C20.2667 18.1381 20.2549 18.1146 20.2486 18.0894C20.2424 18.0642 20.2418 18.038 20.2469 18.0125V14.496C20.2418 14.4705 20.2424 14.4443 20.2486 14.4191C20.2549 14.3939 20.2667 14.3704 20.2831 14.3504C20.2996 14.3303 20.3203 14.3141 20.3437 14.303C20.3672 14.2919 20.3928 14.2861 20.4187 14.2861C20.4447 14.2861 20.4703 14.2919 20.4938 14.303C20.5172 14.3141 20.5379 14.3303 20.5544 14.3504C20.5708 14.3704 20.5826 14.3939 20.5889 14.4191C20.5951 14.4443 20.5957 14.4705 20.5906 14.496V18.0125ZM21.4706 18.0125C21.4706 18.059 21.4522 18.1036 21.4193 18.1365C21.3864 18.1694 21.3418 18.1879 21.2953 18.1879C21.2724 18.1879 21.2498 18.1833 21.2287 18.1744C21.2077 18.1656 21.1886 18.1526 21.1725 18.1363C21.1565 18.12 21.144 18.1006 21.1355 18.0794C21.1271 18.0581 21.123 18.0354 21.1234 18.0125V14.496C21.123 14.4731 21.1271 14.4504 21.1355 14.4291C21.144 14.4079 21.1565 14.3885 21.1725 14.3722C21.1886 14.3559 21.2077 14.3429 21.2287 14.3341C21.2498 14.3252 21.2724 14.3207 21.2953 14.3207C21.3418 14.3207 21.3864 14.3391 21.4193 14.372C21.4522 14.4049 21.4706 14.4495 21.4706 14.496V18.0125Z" fill="#EA8127"/>
</g>
<defs>
<clipPath id="clip0_169_233">
<rect width="22" height="22" fill="white"/>
</clipPath>
</defs>
</svg>
