<svg width="29" height="29" viewBox="0 0 29 29" fill="none" xmlns="http://www.w3.org/2000/svg">
<path d="M14.0025 0C6.28125 0 0 6.2815 0 14.0025C0 21.7238 6.28125 28.0055 14.0025 28.0055C21.7233 28.0055 28.005 21.7238 28.005 14.0025C28.005 6.2815 21.7233 0 14.0025 0ZM17.96 8.8395C17.96 8.9058 17.9337 8.96939 17.8868 9.01628C17.8399 9.06316 17.7763 9.0895 17.71 9.0895L16.1182 9.0905C15.068 9.0905 14.876 9.4995 14.876 10.305V11.976H17.606C17.6778 11.976 17.7463 12.007 17.7935 12.061C17.8408 12.115 17.8628 12.1868 17.854 12.258L17.4653 15.2663C17.4575 15.3265 17.428 15.3819 17.3824 15.422C17.3367 15.4621 17.278 15.4843 17.2173 15.4843H14.876V22.954C14.876 23.0203 14.8497 23.0839 14.8028 23.1308C14.7559 23.1777 14.6923 23.204 14.626 23.204H11.52C11.4537 23.204 11.3901 23.1777 11.3432 23.1308C11.2963 23.0839 11.27 23.0203 11.27 22.954V15.4843H8.92125C8.85495 15.4843 8.79136 15.4579 8.74447 15.411C8.69759 15.3641 8.67125 15.3006 8.67125 15.2343V12.226C8.67125 12.1597 8.69759 12.0961 8.74447 12.0492C8.79136 12.0023 8.85495 11.976 8.92125 11.976H11.27V10.0073C11.27 7.39975 12.848 5.78025 15.3888 5.78025C16.481 5.78025 17.4463 5.8615 17.7428 5.90075C17.8028 5.90869 17.858 5.93819 17.898 5.98377C17.9379 6.02934 17.96 6.08788 17.96 6.1485V8.8395Z" fill="white"/>
</svg>
