<svg width="22" height="22" viewBox="0 0 22 22" fill="none" xmlns="http://www.w3.org/2000/svg">
<g clip-path="url(#clip0_169_238)">
<path d="M12.5867 0.00268555C10.6947 0.00268555 8.54699 0.336811 6.79799 1.36119C5.04624 2.38694 3.72624 4.19781 3.72624 6.80756C3.72624 8.20181 3.60799 8.61844 3.37149 9.07631C3.13499 9.53556 2.67299 10.1241 2.11749 11.4551C2.07466 11.5593 2.05812 11.6725 2.06933 11.7847C2.08053 11.8968 2.11915 12.0045 2.18177 12.0982C2.24438 12.192 2.32909 12.2689 2.42842 12.3221C2.52774 12.3754 2.63865 12.4035 2.75137 12.4038H4.15249L4.14974 12.9442C4.1497 12.9488 4.1497 12.9534 4.14974 12.9579V15.1896C4.14974 15.8358 4.06174 16.4807 4.50862 17.0939C4.73274 17.3992 5.08474 17.6151 5.47524 17.7306C5.86712 17.8461 6.31537 17.8859 6.88324 17.8859H8.46174V21.3152C8.46174 21.4975 8.53417 21.6724 8.66311 21.8013C8.79204 21.9303 8.9669 22.0027 9.14924 22.0027H16.7667C16.9491 22.0027 17.1239 21.9303 17.2529 21.8013C17.3818 21.6724 17.4542 21.4975 17.4542 21.3152V16.5054C17.4542 14.2271 18.0455 13.1587 18.7096 12.0023C19.3462 10.8954 20.0434 9.63319 20.1066 7.63531C20.1349 7.55872 20.1494 7.47771 20.1492 7.39606C20.1492 2.99331 16.5426 0.00543555 12.5867 0.00543555V0.00268555ZM12.5867 1.37219V1.37769C15.8661 1.37769 18.7742 3.73169 18.7742 7.39331C18.7742 9.25644 18.1995 10.1296 17.5175 11.3148C16.8355 12.5001 16.0779 13.9686 16.0779 16.5027V20.6249H9.83674V17.1957C9.83674 17.0133 9.76431 16.8385 9.63538 16.7096C9.50645 16.5806 9.33158 16.5082 9.14924 16.5082H6.88324C6.39099 16.5082 6.05412 16.4656 5.86299 16.4092C5.67049 16.3528 5.64299 16.3116 5.62099 16.2799C5.57424 16.2167 5.52474 15.8564 5.52474 15.1868V12.9469C5.53024 12.3901 5.53299 12.0834 5.52887 11.8937C5.52887 11.7988 5.52887 11.7424 5.51099 11.6311C5.49999 11.5747 5.49999 11.4977 5.40649 11.3492C5.25832 11.1692 5.04665 11.053 4.81524 11.0247H3.89124C4.12912 10.5998 4.40274 10.0718 4.59524 9.70056C4.92524 9.05981 5.10262 8.29119 5.10262 6.80206C5.10262 4.62956 6.06099 3.38106 7.49237 2.54369C8.92374 1.70494 10.8625 1.37219 12.5867 1.37219ZM12.3777 2.74994V2.75269C11.1512 2.73894 9.62774 2.90669 8.37649 3.50206C7.75087 3.79906 7.18024 4.21706 6.81037 4.82069C6.44187 5.42569 6.31674 6.20394 6.50924 7.03444C6.70862 7.88694 7.31912 8.48644 7.97637 8.63631C8.63362 8.78756 9.24962 8.65419 9.84637 8.56481C10.4404 8.47544 11.0096 8.40944 11.4757 8.49194C11.9419 8.57444 12.3131 8.75594 12.6995 9.31831C13.112 9.91919 13.5932 10.3399 14.1364 10.5517C14.3995 10.6548 14.681 10.7028 14.9634 10.6926C15.2458 10.6825 15.5231 10.6144 15.7781 10.4926C16.7654 10.0113 17.3319 8.87556 17.4322 7.48956C17.5354 6.05269 16.9001 4.81794 15.9335 4.00669C14.9655 3.19544 13.684 2.75956 12.3777 2.74994ZM12.3667 4.12769C13.3705 4.14144 14.3632 4.48519 15.0494 5.06269C15.7369 5.63881 16.1315 6.39644 16.06 7.39331C15.9844 8.44244 15.5237 9.08731 15.1731 9.25919C15.091 9.30317 14.9997 9.32732 14.9066 9.32971C14.8135 9.3321 14.7211 9.31266 14.6369 9.27294C14.421 9.19044 14.1336 8.97594 13.8339 8.54006C13.2591 7.70544 12.4726 7.27506 11.7164 7.14031C10.9601 7.00556 10.2479 7.11694 9.64012 7.20906C9.03512 7.29844 8.52637 7.35344 8.28162 7.29706C8.03824 7.24206 7.97087 7.24206 7.84987 6.72231C7.72337 6.17644 7.80037 5.83819 7.98462 5.53706C8.16749 5.23731 8.50299 4.95956 8.96637 4.73956C9.89449 4.29956 11.2846 4.11944 12.3667 4.12769Z" fill="#EA8127"/>
</g>
<defs>
<clipPath id="clip0_169_238">
<rect width="22" height="22" fill="white"/>
</clipPath>
</defs>
</svg>
