<svg width="22" height="22" viewBox="0 0 22 22" fill="none" xmlns="http://www.w3.org/2000/svg">
<path d="M9.91721 13.5953L0.189087 9.24683V18.975C0.189087 19.5078 0.618774 19.9375 1.15159 19.9375H20.8313C21.3641 19.9375 21.7938 19.5078 21.7938 18.975V9.24683L12.3063 13.5953H9.91721Z" fill="#EA8127"/>
<path d="M21.0719 5.60303H1.13442C0.635986 5.60303 0.206299 5.99834 0.206299 6.42803V7.75146L10.2266 12.2374H12.0313L21.811 7.75146V6.42803C21.811 6.03272 21.5704 5.60303 21.0719 5.60303ZM7.99224 3.66084C7.99224 3.47178 8.14692 3.31709 8.33599 3.31709H13.6641C13.8532 3.31709 14.0079 3.47178 14.0079 3.66084V4.6749H15.2625V3.66084C15.2625 2.78428 14.5579 2.07959 13.6813 2.07959H8.35317C7.47661 2.07959 6.77192 2.78428 6.77192 3.66084V4.6749H8.02661V3.66084H7.99224Z" fill="#EA8127"/>
</svg>
