<svg width="28" height="28" viewBox="0 0 28 28" fill="none" xmlns="http://www.w3.org/2000/svg">
<path fill-rule="evenodd" clip-rule="evenodd" d="M28 14C28 21.7319 21.7319 28 14 28C6.26807 28 0 21.7319 0 14C0 6.26807 6.26807 0 14 0C21.7319 0 28 6.26807 28 14ZM7 9.69238C7 8.19653 8.19678 7 9.69238 7H18.3076C19.8032 7 21 8.19653 21 9.69238V18.3076C21 19.8032 19.8032 21 18.3076 21H9.69238C8.19678 21 7 19.8032 7 18.3076V9.69238ZM19.3848 8.61548H19.0854H16.9912V11.0085H19.3848V8.61548ZM14 11.5471C13.2222 11.5471 12.4443 11.9658 12.0259 12.5642C11.8149 12.8594 11.6636 13.1846 11.5923 13.5391C11.5625 13.6875 11.5469 13.8413 11.5469 14C11.5469 15.376 12.6836 16.4531 14 16.4531C15.3164 16.4531 16.4531 15.376 16.4531 14C16.4531 13.6885 16.3931 13.397 16.2842 13.1255C16.2051 12.9277 16.1001 12.7407 15.9741 12.5642C15.5557 11.9658 14.7778 11.5471 14 11.5471ZM18.3076 19.624C19.0259 19.624 19.624 19.0259 19.624 18.3076V12.5642H17.5298C17.7095 12.9829 17.8291 13.5215 17.8291 14C17.8291 16.0942 16.0942 17.8291 14 17.8291C11.9058 17.8291 10.1709 16.0942 10.1709 14C10.1709 13.5215 10.2905 12.9829 10.4702 12.5642H8.37598V18.3076C8.37598 19.0259 8.97461 19.624 9.69238 19.624H18.3076Z" fill="white"/>
</svg>
