<svg width="22" height="22" viewBox="0 0 22 22" fill="none" xmlns="http://www.w3.org/2000/svg">
<path d="M11 8.25C10.3201 8.25 9.65552 8.0484 9.09023 7.67068C8.52493 7.29296 8.08434 6.7561 7.82416 6.12798C7.56399 5.49985 7.49591 4.80869 7.62855 4.14188C7.76119 3.47507 8.08858 2.86257 8.56932 2.38182C9.05006 1.90108 9.66257 1.57369 10.3294 1.44105C10.9962 1.30842 11.6874 1.37649 12.3155 1.63667C12.9436 1.89684 13.4805 2.33743 13.8582 2.90273C14.2359 3.46802 14.4375 4.13263 14.4375 4.8125C14.4375 5.26392 14.3486 5.71092 14.1758 6.12798C14.0031 6.54503 13.7499 6.92398 13.4307 7.24318C13.1115 7.56238 12.7325 7.81559 12.3155 7.98834C11.8984 8.16109 11.4514 8.25 11 8.25ZM11 15.5925C11.4451 14.6675 12.0918 13.854 12.8924 13.2115C13.6931 12.5691 14.6274 12.1141 15.6269 11.88H15.6613C15.3956 10.8456 14.7934 9.92891 13.9495 9.27435C13.1056 8.61979 12.068 8.26454 11 8.26454C9.93201 8.26454 8.89437 8.61979 8.05047 9.27435C7.20658 9.92891 6.6044 10.8456 6.33875 11.88C7.34445 12.1095 8.28562 12.5623 9.09251 13.205C9.8994 13.8476 10.5513 14.6636 11 15.5925ZM18.2669 15.125C17.7034 15.1248 17.1406 15.1639 16.5825 15.2419C13.6469 15.6406 11.3988 17.05 11.0825 18.7894C11.0398 18.9398 11.0121 19.0941 11 19.25C11.001 19.0861 10.9849 18.9225 10.9519 18.7619C10.6013 17.0225 8.35312 15.6131 5.45187 15.2144C4.88179 15.144 4.30743 15.1141 3.73312 15.125H1.375V20.625H20.625V15.125H18.2669ZM11.7425 15.6544C11.5095 16.0897 11.3295 16.5513 11.2062 17.0294C12.2444 15.8056 14.135 14.8981 16.4862 14.5819C17.0757 14.4927 17.6707 14.4445 18.2669 14.4375H19.25V12.375H17.2287C16.7424 12.3759 16.2579 12.4335 15.785 12.5469C14.9323 12.7556 14.1324 13.1397 13.4364 13.6747C12.7403 14.2098 12.1635 14.884 11.7425 15.6544ZM5.5 14.5613C7.85125 14.8775 9.74187 15.785 10.7869 17.0088C10.5471 16.1284 10.1194 15.3105 9.53303 14.6114C8.94671 13.9124 8.21578 13.3487 7.39062 12.9594C7.00525 12.7798 6.60196 12.6416 6.1875 12.5469C5.72354 12.4357 5.24835 12.378 4.77125 12.375H2.75V14.4375H3.73312C4.32424 14.4377 4.91462 14.4791 5.5 14.5613Z" fill="#EA8127"/>
</svg>
