<svg width="22" height="22" viewBox="0 0 22 22" fill="none" xmlns="http://www.w3.org/2000/svg">
<path d="M5.5722 6.19773V8.87211C5.5722 9.29492 5.91596 9.63867 6.34221 9.63867H9.15064C9.57346 9.63867 9.92064 9.29836 9.92064 8.87211V6.19773C9.92064 5.77492 9.57689 5.42773 9.15064 5.42773H6.34221C5.91596 5.42773 5.5722 5.77492 5.5722 6.19773ZM8.46658 8.49055C8.44595 8.50086 8.42189 8.5043 8.40127 8.5043C8.33252 8.5043 8.27064 8.46305 8.24314 8.39773L7.98877 7.78586H7.38377L7.13283 8.39773C7.09502 8.48367 6.99877 8.52492 6.90939 8.49055C6.82346 8.45617 6.78564 8.35648 6.81658 8.27055L7.11564 7.54867L7.52814 6.54492C7.5522 6.47961 7.61752 6.43836 7.68283 6.43836C7.75158 6.43836 7.81002 6.47961 7.83752 6.54492L8.25346 7.54867L8.55595 8.27055C8.59033 8.35648 8.54908 8.45961 8.46658 8.49055Z" fill="#EA8127"/>
<path d="M7.52124 7.44902H7.8478L7.6828 7.05371L7.52124 7.44902Z" fill="#EA8127"/>
<path d="M9.14716 10.1611H6.56216C6.01216 10.1611 5.57216 10.6046 5.57216 11.1511V13.3821C5.57216 13.9286 6.0156 14.3721 6.56216 14.3721H9.14716C9.56998 14.3721 9.91716 14.0283 9.91716 13.6021V10.9277C9.91716 10.5014 9.56998 10.1611 9.14716 10.1611ZM8.47341 12.6877C8.47341 13.0177 8.20529 13.2858 7.87529 13.2858H7.04685C6.95404 13.2858 6.87841 13.2102 6.87841 13.1174V11.3986C6.87841 11.3024 6.95748 11.2302 7.04685 11.2302H7.87529C8.20529 11.2302 8.47341 11.4983 8.47341 11.8283C8.47341 11.9968 8.40123 12.1514 8.29123 12.258C8.40466 12.368 8.47341 12.5193 8.47341 12.6877ZM9.14716 14.7261H6.33873C5.91591 14.7261 5.56873 15.0699 5.56873 15.4961V18.1705C5.56873 18.5933 5.91248 18.9371 6.33873 18.9371H9.14716C9.56998 18.9371 9.91716 18.5968 9.91716 18.1705V15.4961C9.91716 15.0699 9.56998 14.7261 9.14716 14.7261ZM8.68998 17.5414C8.48716 17.7614 8.20185 17.8852 7.90966 17.8852C7.33216 17.8852 6.85779 17.4108 6.85779 16.8299C6.85779 16.2489 7.33216 15.7746 7.90966 15.7746C8.19841 15.7746 8.4631 15.8846 8.66935 16.0943C8.73466 16.1596 8.73466 16.2661 8.66591 16.3314C8.6006 16.4002 8.49404 16.3968 8.42529 16.3314C8.29123 16.1939 8.1056 16.1149 7.90966 16.1149C7.51779 16.1149 7.19466 16.438 7.19466 16.8333C7.19466 17.2286 7.51779 17.5518 7.90966 17.5518C8.11248 17.5518 8.30498 17.4658 8.44248 17.318C8.50779 17.2458 8.61435 17.2424 8.6831 17.3077C8.74841 17.3661 8.75529 17.4761 8.68998 17.5414Z" fill="#EA8127"/>
<path d="M7.87533 11.5672H7.21533V12.0897H7.87533C8.01971 12.0897 8.13658 11.9763 8.13658 11.8284C8.13658 11.6875 8.02314 11.5672 7.87533 11.5672ZM7.87533 12.43H7.21533V12.9525H7.87533C8.01971 12.9525 8.13658 12.8391 8.13658 12.6913C8.13658 12.5469 8.02314 12.43 7.87533 12.43ZM10.8213 9.61126H16.2525C16.4003 9.61126 16.5241 9.49095 16.5241 9.3397C16.5241 9.19188 16.4038 9.06813 16.2525 9.06813H10.8213C10.6735 9.06813 10.5497 9.18845 10.5497 9.3397C10.5497 9.48751 10.6735 9.61126 10.8213 9.61126ZM13.1828 8.6797C13.2344 8.73126 13.3066 8.7622 13.3788 8.7622H13.3925C13.4716 8.75876 13.5438 8.72095 13.5919 8.65563L15.1044 6.66188C15.1938 6.54157 15.1697 6.37313 15.0528 6.28376C15.0047 6.24938 14.9497 6.22876 14.8878 6.22876C14.8019 6.22876 14.7228 6.26657 14.6713 6.33532L13.3513 8.0747L12.8081 7.50407C12.7566 7.45251 12.6844 7.42157 12.6122 7.42157C12.5435 7.42157 12.4747 7.44907 12.4266 7.4972C12.32 7.60032 12.3131 7.7722 12.4163 7.87876L13.1828 8.6797ZM10.8213 18.8134H16.2525C16.4003 18.8134 16.5241 18.6931 16.5241 18.5419C16.5241 18.3941 16.4038 18.2703 16.2525 18.2703H10.8213C10.6735 18.2703 10.5497 18.3906 10.5497 18.5419C10.5497 18.6897 10.6735 18.8134 10.8213 18.8134ZM14.6781 15.5409L13.3581 17.2803L12.815 16.7097C12.7635 16.6547 12.6913 16.6272 12.6191 16.6272C12.5503 16.6272 12.4816 16.6547 12.4335 16.7028C12.3269 16.8059 12.32 16.9778 12.4231 17.0844L13.1863 17.8853C13.2378 17.9369 13.31 17.9678 13.3822 17.9678H13.396C13.475 17.9644 13.5472 17.9266 13.5953 17.8613L15.1078 15.8675C15.1972 15.7472 15.1731 15.5788 15.0563 15.4894C15.0081 15.455 14.9531 15.4344 14.8947 15.4344C14.8088 15.4309 14.7297 15.4722 14.6781 15.5409ZM10.8213 14.1969H16.2525C16.4003 14.1969 16.5241 14.0766 16.5241 13.9253C16.5241 13.7741 16.4038 13.6538 16.2525 13.6538H10.8213C10.6735 13.6538 10.5497 13.7741 10.5497 13.9253C10.5497 14.0766 10.6735 14.1969 10.8213 14.1969ZM12.351 13.1244C12.351 13.1966 12.3785 13.2653 12.43 13.3169C12.4816 13.3684 12.5503 13.3959 12.6191 13.3959C12.6913 13.3959 12.76 13.3684 12.8116 13.3169L13.4819 12.6431L14.1556 13.3134C14.2072 13.365 14.276 13.3925 14.3447 13.3925C14.4169 13.3925 14.4856 13.365 14.5372 13.3134C14.5888 13.2619 14.6163 13.1931 14.6163 13.1209C14.6163 13.0488 14.5888 12.98 14.5372 12.9284L13.8635 12.2581L14.5338 11.5844C14.5853 11.5328 14.6128 11.4641 14.6128 11.3919C14.6128 11.3197 14.5853 11.2509 14.5338 11.1994C14.4822 11.1478 14.4135 11.1203 14.3413 11.1203C14.2691 11.1203 14.2003 11.1478 14.1488 11.1994L13.4785 11.8731L12.8047 11.2028C12.7531 11.1513 12.6844 11.1238 12.6122 11.1238C12.54 11.1238 12.4713 11.1513 12.4197 11.2028C12.3681 11.2544 12.3406 11.3231 12.3406 11.3953C12.3406 11.4675 12.3681 11.5363 12.4197 11.5878L13.0935 12.2581L12.4231 12.9319C12.3785 12.9869 12.351 13.0522 12.351 13.1244Z" fill="#EA8127"/>
<path d="M18.0675 2.2H14.3103V1.89406C14.3103 1.6225 14.0869 1.39906 13.8153 1.39906H12.5675C12.4781 0.611875 11.8113 0 11 0C10.1888 0 9.51844 0.611875 9.42907 1.4025H8.18125C7.90969 1.4025 7.68625 1.62594 7.68625 1.8975V2.2H3.92907C3.43063 2.2 3.02844 2.60219 3.02844 3.09719V21.0994C3.02844 21.5978 3.43063 22 3.92907 22H18.0675C18.5659 22 18.9716 21.5978 18.9716 21.0994V3.09719C18.9716 2.60219 18.5659 2.2 18.0675 2.2ZM8.18125 4.93969H13.8153C14.0938 4.93969 14.3103 4.72312 14.3103 4.44812V3.74H17.2047C17.4075 3.74 17.5725 3.905 17.5725 4.10781V20.2572C17.5725 20.46 17.4075 20.6216 17.2047 20.6216H4.78844C4.58563 20.6216 4.42063 20.46 4.42063 20.2572V4.10781C4.42063 3.905 4.58563 3.74 4.78844 3.74H7.68625V4.44812C7.68625 4.71969 7.90969 4.93969 8.18125 4.93969Z" fill="#EA8127"/>
</svg>
