<svg width="22" height="22" viewBox="0 0 22 22" fill="none" xmlns="http://www.w3.org/2000/svg">
<path d="M11.3438 1.375C10.7568 1.37473 10.1756 1.49013 9.63331 1.71461C9.09102 1.93909 8.59828 2.26825 8.18326 2.68326C7.76825 3.09828 7.43909 3.59102 7.21461 4.13331C6.99013 4.67561 6.87473 5.25683 6.875 5.84375C6.875 8.31325 8.87425 10.3125 11.3438 10.3125C13.8133 10.3125 15.8125 8.31325 15.8125 5.84375C15.8125 3.37425 13.8133 1.375 11.3438 1.375ZM7.90625 11C7.31933 10.9997 6.73811 11.1151 6.19581 11.3396C5.65352 11.5641 5.16078 11.8932 4.74576 12.3083C4.33075 12.7233 4.00159 13.216 3.77711 13.7583C3.55263 14.3006 3.43723 14.8818 3.4375 15.4688V21.3125H19.25V15.7465L19.2362 15.7451H19.25V15.4688C19.25 12.9993 17.2507 11 14.7812 11H7.90625ZM10.9594 13.0625H11.7281L12.3564 18.095L11.3438 19.1077L10.3311 18.095L10.9594 13.0625Z" fill="#EA8127"/>
</svg>
