<svg width="20" height="21" viewBox="0 0 20 21" fill="none" xmlns="http://www.w3.org/2000/svg">
<path d="M5.00016 1.75C4.07516 1.75 3.3335 2.52875 3.3335 3.5V17.5C3.3335 17.9641 3.50909 18.4092 3.82165 18.7374C4.13421 19.0656 4.55814 19.25 5.00016 19.25H15.0002C15.4422 19.25 15.8661 19.0656 16.1787 18.7374C16.4912 18.4092 16.6668 17.9641 16.6668 17.5V7L11.6668 1.75H5.00016ZM10.8335 3.0625L15.4168 7.875H10.8335V3.0625ZM10.0002 9.625C10.6632 9.625 11.2991 9.90156 11.7679 10.3938C12.2368 10.8861 12.5002 11.5538 12.5002 12.25C12.5002 13.895 10.6252 14.0525 10.6252 15.5312H9.37516C9.37516 13.3962 11.2502 13.5625 11.2502 12.25C11.2502 11.9019 11.1185 11.5681 10.884 11.3219C10.6496 11.0758 10.3317 10.9375 10.0002 10.9375C9.66864 10.9375 9.3507 11.0758 9.11628 11.3219C8.88186 11.5681 8.75016 11.9019 8.75016 12.25H7.50016C7.50016 11.5538 7.76355 10.8861 8.2324 10.3938C8.70124 9.90156 9.33712 9.625 10.0002 9.625ZM9.37516 16.1875H10.6252V17.5H9.37516V16.1875Z" fill="#989898"/>
</svg>
