<svg width="512" height="512" viewBox="0 0 512 512" fill="none" xmlns="http://www.w3.org/2000/svg">
<path d="M256 51.2C142.899 51.2 51.2 142.899 51.2 256C51.2 369.101 142.899 460.8 256 460.8C369.101 460.8 460.8 369.101 460.8 256C460.8 218.805 450.731 184.032 433.4 153.967L241.433 345.9C238.242 349.091 233.906 350.9 229.367 350.9C224.844 350.9 220.491 349.108 217.3 345.9L141.3 269.9C134.627 263.227 134.627 252.44 141.3 245.767C147.973 239.094 158.76 239.094 165.433 245.767L229.367 309.7L413.7 125.367C376.136 80.0546 319.454 51.2 256 51.2ZM413.7 125.367C421.067 134.251 427.584 143.873 433.4 153.933L472.867 114.467C479.54 107.776 479.54 97.0064 472.867 90.3333C466.194 83.6602 455.406 83.6602 448.733 90.3333L413.7 125.367Z" fill="white"/>
</svg>
