<svg width="22" height="22" viewBox="0 0 22 22" fill="none" xmlns="http://www.w3.org/2000/svg">
<path d="M15 7.33329C15 8.30575 14.6137 9.23838 13.9261 9.92602C13.2384 10.6137 12.3058 11 11.3333 11C10.3609 11 9.42824 10.6137 8.74061 9.92602C8.05298 9.23838 7.66667 8.30575 7.66667 7.33329C7.66667 6.36083 8.05298 5.4282 8.74061 4.74057C9.42824 4.05293 10.3609 3.66663 11.3333 3.66663C12.3058 3.66663 13.2384 4.05293 13.9261 4.74057C14.6137 5.4282 15 6.36083 15 7.33329ZM18.6667 16.5V18.3333H4V16.5C4 14.4741 7.28167 12.8333 11.3333 12.8333C15.385 12.8333 18.6667 14.4741 18.6667 16.5Z" fill="#EA8127"/>
</svg>
