<svg width="22" height="22" viewBox="0 0 22 22" fill="none" xmlns="http://www.w3.org/2000/svg">
<path d="M20.625 4.125H19.9375V15.8125C19.9375 16.086 19.8288 16.3483 19.6355 16.5417C19.4421 16.7351 19.1798 16.8438 18.9062 16.8438H14.685C13.7779 16.8445 12.8835 17.0563 12.0725 17.4625L11.4606 17.765C11.3181 17.838 11.1601 17.8757 11 17.875C10.7555 17.8605 10.5188 17.7836 10.3125 17.6516C10.2197 17.6 10.1097 17.5416 9.96875 17.4762H9.93437C9.12336 17.07 8.22893 16.8582 7.32187 16.8575H3.09375C2.82025 16.8575 2.55794 16.7489 2.36455 16.5555C2.17115 16.3621 2.0625 16.0998 2.0625 15.8263V4.125H1.375C1.28383 4.125 1.1964 4.16122 1.13193 4.22568C1.06747 4.29015 1.03125 4.37758 1.03125 4.46875V18.2188C1.03125 18.3099 1.06747 18.3974 1.13193 18.4618C1.1964 18.5263 1.28383 18.5625 1.375 18.5625H20.625C20.7162 18.5625 20.8036 18.5263 20.8681 18.4618C20.9325 18.3974 20.9688 18.3099 20.9688 18.2188V4.46875C20.9688 4.37758 20.9325 4.29015 20.8681 4.22568C20.8036 4.16122 20.7162 4.125 20.625 4.125Z" fill="#EA8127"/>
<path d="M10.5428 3.51313C9.61548 3.04826 8.59912 2.78802 7.5625 2.75V10.6562C7.56218 10.7182 7.54515 10.7788 7.51321 10.8318C7.48127 10.8849 7.4356 10.9283 7.38103 10.9575C7.32645 10.9867 7.265 11.0007 7.20316 10.9979C7.14132 10.9951 7.08139 10.9756 7.02969 10.9416L6.1875 10.3813L5.34531 10.9416C5.29361 10.9756 5.23368 10.9951 5.17184 10.9979C5.11 11.0007 5.04855 10.9867 4.99397 10.9575C4.9394 10.9283 4.89373 10.8849 4.86179 10.8318C4.82985 10.7788 4.81282 10.7182 4.8125 10.6562V2.75H3.09375C3.00258 2.75 2.91515 2.78622 2.85068 2.85068C2.78622 2.91515 2.75 3.00258 2.75 3.09375V15.8125C2.75 15.9037 2.78622 15.9911 2.85068 16.0556C2.91515 16.12 3.00258 16.1562 3.09375 16.1562H7.315C8.32912 16.1555 9.3295 16.3908 10.2369 16.8438C10.4156 16.9194 10.5462 16.9916 10.6562 17.05V3.56813L10.5428 3.51313ZM18.9062 2.75H14.685C13.5646 2.7519 12.4598 3.01309 11.4572 3.51313L11.3438 3.56813V17.0569L11.7631 16.8438C12.6705 16.3908 13.6709 16.1555 14.685 16.1562H18.9062C18.9974 16.1562 19.0849 16.12 19.1493 16.0556C19.2138 15.9911 19.25 15.9037 19.25 15.8125V3.09375C19.25 3.00258 19.2138 2.91515 19.1493 2.85068C19.0849 2.78622 18.9974 2.75 18.9062 2.75ZM13.0625 8.9375H15.8572V9.625H13.0625V8.9375ZM13.0625 11.6875H15.8572V12.375H13.0625V11.6875ZM17.1875 13.75H13.0625V13.0625H17.1875V13.75ZM17.1875 11H13.0625V10.3125H17.1875V11ZM17.1875 8.25H13.0625V7.5625H17.1875V8.25Z" fill="#EA8127"/>
</svg>
