<svg width="21" height="21" viewBox="0 0 21 21" fill="none" xmlns="http://www.w3.org/2000/svg">
<path d="M10.4913 1.75C5.66125 1.75 1.75 5.67 1.75 10.5C1.75 15.33 5.66125 19.25 10.4913 19.25C15.33 19.25 19.25 15.33 19.25 10.5C19.25 5.67 15.33 1.75 10.4913 1.75ZM14 14C13.9191 14.0811 13.8229 14.1455 13.717 14.1894C13.6112 14.2333 13.4977 14.2559 13.3831 14.2559C13.2685 14.2559 13.1551 14.2333 13.0492 14.1894C12.9434 14.1455 12.8472 14.0811 12.7663 14L9.8875 11.1213C9.80482 11.0402 9.73905 10.9436 9.69399 10.8369C9.64893 10.7303 9.62548 10.6158 9.625 10.5V7C9.625 6.51875 10.0188 6.125 10.5 6.125C10.9812 6.125 11.375 6.51875 11.375 7V10.1413L14 12.7663C14.3413 13.1075 14.3413 13.6587 14 14Z" fill="#989898"/>
</svg>
