<svg width="22" height="22" viewBox="0 0 22 22" fill="none" xmlns="http://www.w3.org/2000/svg">
<path d="M19.3417 11.4583L20.625 12.7508L14.6392 18.7916L11.4583 15.5833L12.7417 14.2908L14.6392 16.1975L19.3417 11.4583ZM9.16667 15.5833L11.9167 18.3333H2.75V16.5C2.75 14.4741 6.03167 12.8333 10.0833 12.8333L11.8158 12.9341L9.16667 15.5833ZM10.0833 3.66663C11.0558 3.66663 11.9884 4.05293 12.6761 4.74057C13.3637 5.4282 13.75 6.36083 13.75 7.33329C13.75 8.30575 13.3637 9.23838 12.6761 9.92602C11.9884 10.6137 11.0558 11 10.0833 11C9.11087 11 8.17824 10.6137 7.49061 9.92602C6.80298 9.23838 6.41667 8.30575 6.41667 7.33329C6.41667 6.36083 6.80298 5.4282 7.49061 4.74057C8.17824 4.05293 9.11087 3.66663 10.0833 3.66663Z" fill="#EA8127"/>
</svg>
