<svg width="512" height="512" viewBox="0 0 512 512" fill="none" xmlns="http://www.w3.org/2000/svg">
<path fill-rule="evenodd" clip-rule="evenodd" d="M466 255.5C466 371.204 372.204 465 256.5 465C140.796 465 47 371.204 47 255.5C47 139.796 140.796 46 256.5 46C372.204 46 466 139.796 466 255.5ZM334.888 163.253C340.55 157.59 349.731 157.59 355.394 163.253C361.056 168.916 361.056 178.097 355.394 183.759L284.083 255.07L355.394 326.382C361.056 332.044 361.056 341.225 355.394 346.888C349.731 352.55 340.55 352.55 334.888 346.888L263.576 275.576L192.759 346.394C187.097 352.056 177.916 352.056 172.253 346.394C166.59 340.731 166.59 331.55 172.253 325.888L243.07 255.07L172.253 184.253C166.59 178.59 166.59 169.41 172.253 163.747C177.916 158.084 187.097 158.084 192.759 163.747L263.576 234.564L334.888 163.253Z" fill="white"/>
</svg>
