<svg width="349" height="267" viewBox="0 0 349 267" fill="none" xmlns="http://www.w3.org/2000/svg">
<g clip-path="url(#clip0_0_3)">
<path d="M48.71 251.46C48.71 251.46 12.24 234.96 25.75 205.74C39.26 176.51 66.29 131.64 52.78 108.76C39.27 85.88 37.9 12.6 115.61 1.37001C177.58 -7.58999 196.42 29.27 206.04 54.42C218.71 87.61 207.39 148.19 266.65 156.18C325.91 164.17 381.54 212.08 324.77 255.58C301.37 273.51 48.72 251.45 48.72 251.45L48.71 251.46Z" fill="#95C3DF" fill-opacity="0.17"/>
<path d="M102.16 219.12C68.68 235.03 37.48 231.01 43.04 210.52C48.61 190.03 42.07 189.14 33.18 185.17C24.29 181.2 3.6 169.2 16.08 147.84C28.55 126.48 14.8 124.32 7.23 115.23C-14.86 88.68 19.42 73.05 33.37 93.62C47.33 114.18 30.12 133.02 48.04 139.99C65.96 146.96 70.34 151.81 72.69 165.03C75.05 178.24 76.16 207.24 91.66 202.42C107.15 197.6 119.33 210.98 102.16 219.14V219.12Z" fill="#EDB23B"/>
<g style="mix-blend-mode:overlay" opacity="0.2">
<path d="M9.34999 110.4C6.98999 107.66 0.159991 94.63 9.09999 92.24C18.05 89.85 25.35 101.63 25.51 111.57C25.68 121.51 30.52 136.05 35.71 141.3C45.29 150.97 44.91 156.06 38.55 167.75C38.55 167.75 35.75 175.98 45.8 181.79C55.84 187.59 57.6 209.59 67.98 210.81C78.36 212.03 85.48 218.11 79.08 220.32C72.68 222.53 46.13 231.5 49.12 211.94C53.48 183.48 31.67 178.58 24.96 175.88C18.25 173.18 12.36 160.75 22.37 142.77C30.12 128.86 16.59 118.81 9.34999 110.39V110.4Z" fill="white"/>
</g>
<path d="M138.59 223.75C89.14 237.24 47.64 224.15 60.21 197.62C72.78 171.09 64.11 168.27 52.97 160.7C41.83 153.13 16.61 131.75 38.8 105.71C60.99 79.68 42.8 73.39 34.71 59.16C11.14 17.63 97.08 -4.30998 75.59 36.12C59.46 66.46 61.54 88.96 84.24 102.81C106.93 116.67 111.71 124.35 111.69 142.91C111.67 161.48 106.11 201.21 128.38 198.43C150.64 195.65 163.96 216.83 138.6 223.75H138.59Z" fill="#0A6EB0"/>
<g style="mix-blend-mode:overlay" opacity="0.2">
<path d="M38.79 53.13C36.25 48.83 34.59 27.23 55.63 27.28C68.44 27.31 62.7 45.09 60.49 58.67C58.29 72.24 61.33 93.21 67.12 101.62C77.79 117.12 76.03 123.96 64.52 138.32C64.52 138.32 58.71 148.85 70.97 159.2C83.22 169.55 80.25 199.92 94.07 204.11C107.91 208.3 116.12 218.32 106.87 219.76C97.61 221.21 59.29 226.93 68.13 201.04C81.02 163.37 51.64 153.89 44.05 146.07C37.08 138.89 30.59 122.4 48.6 100.38C62.54 83.33 46.59 66.36 38.78 53.14L38.79 53.13Z" fill="white"/>
</g>
<path d="M71.99 177.37L74.14 174.33C25.84 140.3 23.08 88.21 23.06 87.67L19.33 87.84C19.37 88.37 22.15 142.25 71.99 177.37Z" fill="#EA8127"/>
<path d="M21.92 90.59C21.92 90.59 23.67 69.56 11.99 70.88C7.02998 71.44 4.90998 81.02 21.92 90.59Z" fill="#EA8127"/>
<path d="M23.08 98.31C23.08 98.31 10.51 79.75 3.73999 89.06C0.859987 93.04 5.74999 102.45 23.08 98.31Z" fill="#EA8127"/>
<path d="M22.13 100.18C22.13 100.18 19.35 78.69 31.12 82.45C36.14 84.05 38.75 94.15 22.13 100.18Z" fill="#EA8127"/>
<path d="M28.03 117.63C28.03 117.63 24.24 96.15 36.12 99.35C41.18 100.71 44.23 110.71 28.03 117.63Z" fill="#EA8127"/>
<path d="M33.86 131.59C33.86 131.59 30.15 110.13 42.03 113.36C47.1 114.72 50.12 124.74 33.86 131.59Z" fill="#EA8127"/>
<path d="M43.8 147.37C43.8 147.37 36.53 126.46 48.49 127.49C53.59 127.93 58.22 137.44 43.8 147.37Z" fill="#EA8127"/>
<path d="M53.41 158.98C53.41 158.98 46.7 137.92 58.69 139.33C63.77 139.93 68.16 149.54 53.41 158.98Z" fill="#EA8127"/>
<path d="M67.95 172.03C67.95 172.03 56.1 153 67.57 150.91C72.45 150.02 79.1 158.33 67.95 172.03Z" fill="#EA8127"/>
<path d="M26.44 113.13C26.44 113.13 13.85 94.55 7.08997 103.89C4.20997 107.85 9.08997 117.25 26.44 113.13Z" fill="#EA8127"/>
<path d="M32.31 127.6C32.31 127.6 19.7 109.03 12.95 118.36C10.07 122.32 14.96 131.73 32.31 127.6Z" fill="#EA8127"/>
<path d="M40.05 140.82C40.05 140.82 24.06 125.21 19.73 136.17C17.88 140.83 24.57 149.1 40.05 140.82Z" fill="#EA8127"/>
<path d="M50.11 154.57C50.11 154.57 32.83 140.59 29.7 152.11C28.38 157.02 35.76 164.62 50.11 154.57Z" fill="#EA8127"/>
<path d="M62.02 166.57C62.02 166.57 43.31 155.08 41.86 167.19C41.28 172.34 49.51 178.87 62.02 166.57Z" fill="#EA8127"/>
<path d="M334.9 255.25C334.9 261.32 267.01 266.22 183.26 266.22C99.51 266.22 31.63 261.32 31.63 255.25C31.63 249.18 99.52 244.29 183.26 244.29C267 244.29 334.9 249.19 334.9 255.25Z" fill="#D8D8D8"/>
<path d="M244.69 39.48H69.93V202.83H244.69V39.48Z" fill="#95C3DF"/>
<path d="M232.79 68.21H81.83V192.7H232.79V68.21Z" fill="#0A6EB0" fill-opacity="0.41"/>
<path d="M244.69 39.48H69.93V57.5H244.69V39.48Z" fill="#0A6EB0" fill-opacity="0.41"/>
<path d="M87.46 43.42H77.51V53H87.46V43.42Z" fill="white"/>
<path d="M236.18 43.42H226.22V53H236.18V43.42Z" fill="white"/>
<path d="M222.66 43.42H212.71V53H222.66V43.42Z" fill="white"/>
<path d="M209.14 43.42H199.19V53H209.14V43.42Z" fill="white"/>
<path d="M113.74 74.97H90.28V77.58H113.74V74.97Z" fill="white"/>
<path d="M111.4 82.78H102.01V85.39H111.4V82.78Z" fill="#EA8127"/>
<path d="M123.91 82.78H114.53V85.39H123.91V82.78Z" fill="#EA8127"/>
<path d="M136.42 82.78H127.04V85.39H136.42V82.78Z" fill="white"/>
<path d="M148.94 82.78H139.55V85.39H148.94V82.78Z" fill="white"/>
<path d="M160.67 82.78H151.29V85.39H160.67V82.78Z" fill="white"/>
<path d="M115.31 90.61H105.92V93.22H115.31V90.61Z" fill="#EA8127"/>
<path d="M127.82 90.61H118.44V93.22H127.82V90.61Z" fill="#EA8127"/>
<path d="M140.33 90.61H130.95V93.22H140.33V90.61Z" fill="white"/>
<path d="M152.85 90.61H143.46V93.22H152.85V90.61Z" fill="white"/>
<path d="M164.58 90.61H155.19V93.22H164.58V90.61Z" fill="white"/>
<path d="M180.22 90.61H170.83V93.22H180.22V90.61Z" fill="white"/>
<path d="M113.74 98.43H90.28V101.04H113.74V98.43Z" fill="white"/>
<path d="M111.4 106.25H102.01V108.85H111.4V106.25Z" fill="#EA8127"/>
<path d="M123.91 106.25H114.53V108.85H123.91V106.25Z" fill="#EA8127"/>
<path d="M136.42 106.25H127.04V108.85H136.42V106.25Z" fill="white"/>
<path d="M148.94 106.25H139.55V108.85H148.94V106.25Z" fill="white"/>
<path d="M160.67 106.25H151.29V108.85H160.67V106.25Z" fill="white"/>
<path d="M115.31 114.07H105.92V116.68H115.31V114.07Z" fill="#EA8127"/>
<path d="M127.82 114.07H118.44V116.68H127.82V114.07Z" fill="#EA8127"/>
<path d="M140.33 114.07H130.95V116.68H140.33V114.07Z" fill="white"/>
<path d="M152.85 114.07H143.46V116.68H152.85V114.07Z" fill="white"/>
<path d="M164.58 114.07H155.19V116.68H164.58V114.07Z" fill="white"/>
<path d="M180.22 114.07H170.83V116.68H180.22V114.07Z" fill="white"/>
<path d="M141.11 121.89H117.65V124.5H141.11V121.89Z" fill="white"/>
<path d="M138.78 129.71H129.39V132.32H138.78V129.71Z" fill="#EA8127"/>
<path d="M151.29 129.71H141.9V132.32H151.29V129.71Z" fill="#EA8127"/>
<path d="M163.8 129.71H154.41V132.32H163.8V129.71Z" fill="white"/>
<path d="M176.31 129.71H166.92V132.32H176.31V129.71Z" fill="white"/>
<path d="M188.05 129.71H178.66V132.32H188.05V129.71Z" fill="white"/>
<path d="M142.68 137.53H133.3V140.14H142.68V137.53Z" fill="#EA8127"/>
<path d="M155.19 137.53H145.81V140.14H155.19V137.53Z" fill="#EA8127"/>
<path d="M167.72 137.53H158.33V140.14H167.72V137.53Z" fill="white"/>
<path d="M180.22 137.53H170.83V140.14H180.22V137.53Z" fill="white"/>
<path d="M191.96 137.53H182.57V140.14H191.96V137.53Z" fill="white"/>
<path d="M207.6 137.53H198.21V140.14H207.6V137.53Z" fill="white"/>
<path d="M141.11 149.26H117.65V151.86H141.11V149.26Z" fill="white"/>
<path d="M138.78 157.09H129.39V159.69H138.78V157.09Z" fill="#EA8127"/>
<path d="M151.29 157.09H141.9V159.69H151.29V157.09Z" fill="#EA8127"/>
<path d="M163.8 157.09H154.41V159.69H163.8V157.09Z" fill="white"/>
<path d="M176.31 157.09H166.92V159.69H176.31V157.09Z" fill="white"/>
<path d="M188.05 157.09H178.66V159.69H188.05V157.09Z" fill="white"/>
<path d="M142.68 164.9H133.3V167.51H142.68V164.9Z" fill="#EA8127"/>
<path d="M155.19 164.9H145.81V167.51H155.19V164.9Z" fill="#EA8127"/>
<path d="M167.72 164.9H158.33V167.51H167.72V164.9Z" fill="white"/>
<path d="M180.22 164.9H170.83V167.51H180.22V164.9Z" fill="white"/>
<path d="M191.96 164.9H182.57V167.51H191.96V164.9Z" fill="white"/>
<path d="M207.6 164.9H198.21V167.51H207.6V164.9Z" fill="white"/>
<path d="M113.74 168.81H90.28V171.42H113.74V168.81Z" fill="white"/>
<path d="M111.4 176.63H102.01V179.24H111.4V176.63Z" fill="#EA8127"/>
<path d="M123.91 176.63H114.53V179.24H123.91V176.63Z" fill="#EA8127"/>
<path d="M136.42 176.63H127.04V179.24H136.42V176.63Z" fill="white"/>
<path d="M148.94 176.63H139.55V179.24H148.94V176.63Z" fill="white"/>
<path d="M160.67 176.63H151.29V179.24H160.67V176.63Z" fill="white"/>
<path d="M115.31 184.46H105.92V187.07H115.31V184.46Z" fill="#EA8127"/>
<path d="M127.82 184.46H118.44V187.07H127.82V184.46Z" fill="#EA8127"/>
<path d="M140.33 184.46H130.95V187.07H140.33V184.46Z" fill="white"/>
<path d="M152.85 184.46H143.46V187.07H152.85V184.46Z" fill="white"/>
<path d="M164.58 184.46H155.19V187.07H164.58V184.46Z" fill="white"/>
<path d="M180.22 184.46H170.83V187.07H180.22V184.46Z" fill="white"/>
<path opacity="0.2" d="M243.59 82.78H127.04V202.84H244.7L243.59 82.78Z" fill="black"/>
<path d="M308.06 89.74H133.3V253.1H308.06V89.74Z" fill="#F5FEFF"/>
<path d="M296.16 118.48H145.2V242.97H296.16V118.48Z" fill="#0A6EB0" fill-opacity="0.41"/>
<path d="M308.06 89.74H133.3V107.77H308.06V89.74Z" fill="#0A6EB0" fill-opacity="0.41"/>
<path d="M150.84 93.69H140.88V103.26H150.84V93.69Z" fill="white"/>
<path d="M299.55 93.69H289.59V103.26H299.55V93.69Z" fill="white"/>
<path d="M286.02 93.69H276.07V103.26H286.02V93.69Z" fill="white"/>
<path d="M272.5 93.69H262.55V103.26H272.5V93.69Z" fill="white"/>
<path d="M177.11 125.23H153.65V127.83H177.11V125.23Z" fill="white"/>
<path d="M174.77 133.05H165.38V135.66H174.77V133.05Z" fill="#EA8127"/>
<path d="M187.28 133.05H177.9V135.66H187.28V133.05Z" fill="#EA8127"/>
<path d="M199.79 133.05H190.41V135.66H199.79V133.05Z" fill="white"/>
<path d="M212.31 133.05H202.92V135.66H212.31V133.05Z" fill="white"/>
<path d="M224.03 133.05H214.65V135.66H224.03V133.05Z" fill="white"/>
<path d="M178.68 140.87H169.29V143.48H178.68V140.87Z" fill="#EA8127"/>
<path d="M191.19 140.87H181.8V143.48H191.19V140.87Z" fill="#EA8127"/>
<path d="M203.7 140.87H194.32V143.48H203.7V140.87Z" fill="white"/>
<path d="M216.22 140.87H206.83V143.48H216.22V140.87Z" fill="white"/>
<path d="M227.95 140.87H218.56V143.48H227.95V140.87Z" fill="white"/>
<path d="M243.59 140.87H234.2V143.48H243.59V140.87Z" fill="white"/>
<path d="M177.11 148.69H153.65V151.3H177.11V148.69Z" fill="white"/>
<path d="M174.77 156.51H165.38V159.12H174.77V156.51Z" fill="#EA8127"/>
<path d="M187.28 156.51H177.9V159.12H187.28V156.51Z" fill="#EA8127"/>
<path d="M199.79 156.51H190.41V159.12H199.79V156.51Z" fill="white"/>
<path d="M212.31 156.51H202.92V159.12H212.31V156.51Z" fill="white"/>
<path d="M224.03 156.51H214.65V159.12H224.03V156.51Z" fill="white"/>
<path d="M178.68 164.33H169.29V166.94H178.68V164.33Z" fill="#EA8127"/>
<path d="M191.19 164.33H181.8V166.94H191.19V164.33Z" fill="#EA8127"/>
<path d="M203.7 164.33H194.32V166.94H203.7V164.33Z" fill="white"/>
<path d="M216.22 164.33H206.83V166.94H216.22V164.33Z" fill="white"/>
<path d="M227.95 164.33H218.56V166.94H227.95V164.33Z" fill="white"/>
<path d="M243.59 164.33H234.2V166.94H243.59V164.33Z" fill="white"/>
<path d="M204.48 172.16H181.02V174.76H204.48V172.16Z" fill="white"/>
<path d="M202.14 179.97H192.75V182.58H202.14V179.97Z" fill="#EA8127"/>
<path d="M214.65 179.97H205.26V182.58H214.65V179.97Z" fill="#EA8127"/>
<path d="M227.17 179.97H217.78V182.58H227.17V179.97Z" fill="white"/>
<path d="M239.68 179.97H230.29V182.58H239.68V179.97Z" fill="white"/>
<path d="M251.41 179.97H242.02V182.58H251.41V179.97Z" fill="white"/>
<path d="M206.05 187.8H196.66V190.41H206.05V187.8Z" fill="#EA8127"/>
<path d="M218.56 187.8H209.18V190.41H218.56V187.8Z" fill="#EA8127"/>
<path d="M231.08 187.8H221.69V190.41H231.08V187.8Z" fill="white"/>
<path d="M243.59 187.8H234.2V190.41H243.59V187.8Z" fill="white"/>
<path d="M255.32 187.8H245.93V190.41H255.32V187.8Z" fill="white"/>
<path d="M270.95 187.8H261.57V190.41H270.95V187.8Z" fill="white"/>
<path d="M204.48 199.53H181.02V202.14H204.48V199.53Z" fill="white"/>
<path d="M202.14 207.35H192.75V209.96H202.14V207.35Z" fill="#EA8127"/>
<path d="M214.65 207.35H205.26V209.96H214.65V207.35Z" fill="#EA8127"/>
<path d="M227.17 207.35H217.78V209.96H227.17V207.35Z" fill="white"/>
<path d="M239.68 207.35H230.29V209.96H239.68V207.35Z" fill="white"/>
<path d="M251.41 207.35H242.02V209.96H251.41V207.35Z" fill="white"/>
<path d="M206.05 215.17H196.66V217.77H206.05V215.17Z" fill="#EA8127"/>
<path d="M218.56 215.17H209.18V217.77H218.56V215.17Z" fill="#EA8127"/>
<path d="M231.08 215.17H221.69V217.77H231.08V215.17Z" fill="white"/>
<path d="M243.59 215.17H234.2V217.77H243.59V215.17Z" fill="white"/>
<path d="M255.32 215.17H245.93V217.77H255.32V215.17Z" fill="white"/>
<path d="M270.95 215.17H261.57V217.77H270.95V215.17Z" fill="white"/>
<path d="M177.11 219.08H153.65V221.68H177.11V219.08Z" fill="white"/>
<path d="M174.77 226.9H165.38V229.51H174.77V226.9Z" fill="#EA8127"/>
<path d="M187.28 226.9H177.9V229.51H187.28V226.9Z" fill="#EA8127"/>
<path d="M199.79 226.9H190.41V229.51H199.79V226.9Z" fill="white"/>
<path d="M212.31 226.9H202.92V229.51H212.31V226.9Z" fill="white"/>
<path d="M224.03 226.9H214.65V229.51H224.03V226.9Z" fill="white"/>
<path d="M178.68 234.72H169.29V237.33H178.68V234.72Z" fill="#EA8127"/>
<path d="M191.19 234.72H181.8V237.33H191.19V234.72Z" fill="#EA8127"/>
<path d="M203.7 234.72H194.32V237.33H203.7V234.72Z" fill="white"/>
<path d="M216.22 234.72H206.83V237.33H216.22V234.72Z" fill="white"/>
<path d="M227.95 234.72H218.56V237.33H227.95V234.72Z" fill="white"/>
<path d="M243.59 234.72H234.2V237.33H243.59V234.72Z" fill="white"/>
<path d="M185.66 101.53C185.66 124.52 167.02 143.17 144.02 143.17C121.02 143.17 102.38 124.52 102.38 101.53C102.38 78.54 121.03 59.89 144.02 59.89C167.01 59.89 185.66 78.54 185.66 101.53Z" fill="#EA8127"/>
<path d="M129.129 81.89L123.33 88.1322L158.923 121.195L164.722 114.953L129.129 81.89Z" fill="white"/>
<path d="M157.36 80.7833L124.402 116.474L130.662 122.254L163.619 86.5634L157.36 80.7833Z" fill="white"/>
<path d="M226.65 205.82C227.73 221.09 233.39 244.85 234.18 257.69C234.24 258.58 234.37 258.75 231.12 259.51C227.35 260.38 230.25 262.17 236.15 262.12C241.68 262.07 244.16 238.01 244.69 225.28C244.85 221.7 243.46 210.89 245.35 200.69C245.58 204.5 245.91 208.84 246.39 213.6C247.8 227.53 264.42 245.78 265.67 257.49C265.76 258.4 265.64 258.74 262.73 259.65C259.8 260.55 262.64 262.23 267.7 262.1C272.76 261.98 269.67 237.72 267.04 226.36C264.74 216.43 263.38 207.06 260.43 180.82C260.44 180.82 260.46 180.82 260.46 180.81C260.46 180.81 260.44 180.81 260.43 180.81C260.41 180.57 260.38 180.36 260.35 180.11C259.83 170.88 259.13 164.97 263.73 156.81C270.34 145.1 261.04 141.53 255.42 139.22C249.8 136.9 234.16 134.75 232.49 143.8C231.09 151.45 237.92 162.71 233.54 174.48C233.3 175.16 225.37 188.18 226.63 205.8L226.65 205.82Z" fill="#EE9D7F"/>
<path d="M241.8 140.24C240.81 139.11 238.08 137.54 234.94 140.42C230.74 144.27 225.15 155.58 217.41 157.26C209.66 158.94 206.06 154.99 203.3 152.66C200.54 150.32 200.52 148.1 198.77 146.92C197.02 145.74 195.7 147.87 199.23 152.67C200.93 154.96 207.89 167.29 217.49 166.99C230.07 166.6 246.59 145.65 241.8 140.24Z" fill="#EE9D7F"/>
<path d="M232.05 177.52C242.12 184.93 255.09 182.63 260.57 181.46C262.06 194.67 270.73 244.16 271.75 250.96C267.32 252.56 265.85 252.92 264.57 252.92C240.93 218.17 245.58 204.52 245.35 200.7C244.54 205.09 247.26 231.72 242.64 252.92C241.09 254.02 236.4 255.44 233.05 252.92C232.89 251.56 226.73 207.07 226.64 205.83C225.72 192.88 229.74 182.44 232.04 177.53L232.05 177.52Z" fill="#0A6EB0"/>
<path d="M265.05 154.08C265.05 154.08 270.41 138.92 253.3 153.08C250.77 155.15 251.87 165.17 251.87 165.17L258.97 168.91L265.05 154.08Z" fill="#E67052"/>
<path d="M256.63 139.73C256.63 139.73 249.78 154.21 239.71 152.01C236.69 151.35 234.31 147.09 243.6 136.77L240.25 137.52C240.25 137.52 231.32 148.66 228.43 163.84C225.54 179.01 228.39 185.94 228.39 185.94C228.39 185.94 231.45 188.55 245.34 189.8C251.54 190.35 256.79 189.92 261.36 188.48C261.36 188.48 259.42 171.08 260.54 165.15C260.54 165.15 252.32 165.14 253.17 154.14C253.89 145.06 259.31 140.77 259.31 140.77L256.62 139.72L256.63 139.73Z" fill="#EFBEBD"/>
<path d="M254.1 131.21C254.1 131.21 250.86 135.38 253.59 138.6C256.38 141.9 241.76 145.91 242.69 143.27C243.9 139.85 246.15 138.17 245.34 133.73L254.09 131.21H254.1Z" fill="#E67052"/>
<path d="M248.65 120.71C245.04 122.86 239.05 134.54 241.58 137.96C242.68 139.45 248.61 139.38 253.39 134.73C255.35 132.83 258.11 129.04 256.78 124.31C256.19 122.17 252.87 118.21 248.65 120.7V120.71Z" fill="#F3B294"/>
<path d="M251.41 182.59C252.14 180.35 251.02 178.97 247.3 178.47C241.78 177.75 233.2 173.92 237.82 174.79C242.43 175.66 248.78 175.86 254.02 174.79C259.26 173.72 260.55 165.17 260.55 165.17C259.43 171.1 261.37 188.5 261.37 188.5C256.8 189.94 251.54 190.37 245.35 189.82C231.46 188.57 228.4 185.96 228.4 185.96C246.77 188.7 250.78 184.46 251.41 182.6V182.59Z" fill="#EFBEBD"/>
<path d="M245.28 121.53C244.27 122.93 244.38 123.34 248.91 125.09C253.41 126.86 254.28 126.73 253.56 127.74C251.44 130.71 254.91 130.81 252.33 134.33C249.76 137.86 254.21 136.36 256.64 133.55C257.15 132.98 259.8 130.28 258.61 124.91C257.22 118.63 249 116.37 245.29 121.53H245.28Z" fill="#AA3C3C"/>
<path d="M252.32 134.33C252.32 134.33 251.39 135.31 249.05 134.33C246.71 133.36 243.52 130.15 242.21 130.29C240.89 130.41 239.25 137.2 241.62 138.84C243.99 140.46 251.12 138.86 253.49 135.98C254.01 135.36 252.32 134.33 252.32 134.33Z" fill="#AA3C3C"/>
<path d="M245.53 135.31C245.53 135.31 244.95 133.13 243.38 132.67C241.81 132.21 241.68 134.17 241.87 134.89C242.07 135.6 244.23 137.4 245.53 137C246.84 136.59 245.82 136.07 245.53 135.31Z" fill="#F3B294"/>
<path d="M258.6 124.91C259.98 129.92 257.14 132.98 256.63 133.55C254.83 135.63 253 137.22 249.95 138.32C249.63 138.48 251.88 137.06 251.58 136.1C251.24 134.96 254.32 135.24 254.09 132.3C253.86 129.36 255.82 129.18 255.91 126.7C256.03 124.2 254.13 124.26 249.04 122.27C246.97 121.46 246.74 120.54 247.19 119.73C251.27 117.16 257.14 119.64 258.59 124.92L258.6 124.91Z" fill="#AA3C3C"/>
<path d="M239.25 259.23C239.25 259.23 234.85 261.16 232.13 259.23C232.13 259.23 227.18 259.97 230.29 261.3C233.42 262.63 239.44 263.73 239.25 259.23Z" fill="#0A6EB0"/>
<path d="M269.85 259.67C269.85 259.67 265.45 261.59 262.73 259.67C262.73 259.67 257.77 260.41 260.89 261.74C264 263.07 270.03 264.17 269.84 259.67H269.85Z" fill="#0A6EB0"/>
<path d="M266.06 146.09C266.06 146.09 262.98 143.02 259.24 146.45C254.88 150.44 252.14 164.44 244.72 167.95C237.31 171.45 232.74 168.32 229.41 166.61C226.07 164.9 225.54 162.67 223.49 161.89C221.45 161.11 220.62 163.57 225.31 167.58C227.55 169.49 237.48 180.29 247.09 177.75C259.68 174.4 272.15 150.43 266.05 146.1L266.06 146.09Z" fill="#EE9D7F"/>
</g>
<defs>
<clipPath id="clip0_0_3">
<rect width="348.45" height="266.21" fill="white"/>
</clipPath>
</defs>
</svg>
