<svg width="175" height="68" viewBox="0 0 175 68" fill="none" xmlns="http://www.w3.org/2000/svg">
<path d="M87.076 16.4977V27.6277L88.756 28.2577V28.5727H84.766V28.2577L86.446 27.6277V14.5027L85.186 14.1877V13.8727H87.811C88.539 13.8727 89.113 14.0267 89.533 14.3347C89.967 14.6287 90.338 15.0697 90.646 15.6577L95.224 24.4147L98.731 15.6577C98.969 15.0417 99.291 14.5937 99.697 14.3137C100.103 14.0197 100.726 13.8727 101.566 13.8727H103.771V14.1877L102.511 14.5027V27.9427L103.771 28.2577V28.5727H97.786V28.2577L99.046 27.9427V16.4977L94.111 28.7827H93.481L87.076 16.4977ZM109.763 28.8877C108.517 28.8877 107.558 28.6217 106.886 28.0897C106.214 27.5577 105.878 26.8787 105.878 26.0527C105.878 25.5067 105.997 24.9677 106.235 24.4357C106.333 24.1837 106.459 23.9527 106.613 23.7427C107.187 23.6027 107.81 23.4767 108.482 23.3647C109.994 23.1127 111.331 22.9587 112.493 22.9027V22.2727C112.493 20.7187 112.304 19.6477 111.926 19.0597C111.548 18.4717 110.967 18.1777 110.183 18.1777C109.889 18.1777 109.637 18.2127 109.427 18.2827L109.133 18.3877V21.5377L108.86 21.6007C108.636 21.6287 108.447 21.6427 108.293 21.6427C107.817 21.6427 107.432 21.5027 107.138 21.2227C106.858 20.9287 106.718 20.5437 106.718 20.0677C106.718 19.4237 107.04 18.8777 107.684 18.4297C108.342 17.9817 109.315 17.7577 110.603 17.7577C111.695 17.7577 112.633 17.9537 113.417 18.3457C114.215 18.7237 114.817 19.2557 115.223 19.9417C115.643 20.6137 115.853 21.3907 115.853 22.2727V27.9427L117.113 28.2577V28.5727H115.223C114.383 28.5727 113.732 28.3137 113.27 27.7957C113.074 27.5857 112.92 27.3197 112.808 26.9977C112.612 27.3477 112.381 27.6627 112.115 27.9427C111.485 28.5727 110.701 28.8877 109.763 28.8877ZM110.603 28.1527C111.121 28.1527 111.59 27.8727 112.01 27.3127C112.164 27.1027 112.325 26.8227 112.493 26.4727V23.4277C111.849 23.4277 111.233 23.4627 110.645 23.5327C110.211 23.5887 109.917 23.6237 109.763 23.6377C109.693 23.7917 109.623 24.0017 109.553 24.2677C109.413 24.7997 109.343 25.3247 109.343 25.8427C109.343 26.6267 109.462 27.2077 109.7 27.5857C109.938 27.9637 110.239 28.1527 110.603 28.1527ZM123.318 33.0877C122.072 33.0877 121.057 32.9757 120.273 32.7517C119.489 32.5277 118.922 32.2407 118.572 31.8907C118.236 31.5407 118.068 31.1697 118.068 30.7777C118.068 30.3017 118.208 29.9167 118.488 29.6227C118.782 29.3427 119.167 29.2027 119.643 29.2027C119.755 29.2027 119.958 29.2237 120.252 29.2657L120.483 29.3077V32.2477C120.651 32.3037 120.917 32.3737 121.281 32.4577C121.925 32.5977 122.534 32.6677 123.108 32.6677C124.816 32.6677 126.062 32.4227 126.846 31.9327C127.644 31.4567 128.043 30.8617 128.043 30.1477C128.043 29.2377 127.203 28.7827 125.523 28.7827H121.533C120.483 28.7827 119.678 28.5657 119.118 28.1317C118.558 27.6977 118.278 27.1447 118.278 26.4727C118.278 25.8007 118.607 25.2057 119.265 24.6877C119.531 24.4917 119.867 24.3167 120.273 24.1627C119.755 23.8407 119.377 23.4627 119.139 23.0287C118.915 22.5807 118.803 22.0487 118.803 21.4327C118.803 20.3967 119.195 19.5637 119.979 18.9337C120.763 18.2897 121.911 17.9677 123.423 17.9677C124.081 17.9677 124.683 18.0377 125.229 18.1777C125.789 18.3037 126.237 18.4787 126.573 18.7027C126.685 18.4647 126.832 18.2547 127.014 18.0727C127.434 17.6527 127.952 17.4427 128.568 17.4427C129.044 17.4427 129.443 17.6107 129.765 17.9467C130.087 18.2687 130.248 18.6957 130.248 19.2277C130.248 19.6337 130.136 19.9627 129.912 20.2147C129.702 20.4667 129.429 20.5927 129.093 20.5927C128.939 20.5927 128.764 20.5787 128.568 20.5507L128.358 20.4877V17.9677C127.994 17.9677 127.651 18.1427 127.329 18.4927C127.203 18.6187 127.091 18.7937 126.993 19.0177C127.693 19.6337 128.043 20.4387 128.043 21.4327C128.043 22.4687 127.651 23.3087 126.867 23.9527C126.083 24.5827 124.935 24.8977 123.423 24.8977C122.415 24.8977 121.505 24.7227 120.693 24.3727L120.273 24.5827C120.133 24.6667 120.028 24.7507 119.958 24.8347C119.888 24.9047 119.853 24.9957 119.853 25.1077C119.853 25.3457 119.972 25.5277 120.21 25.6537C120.462 25.7797 120.903 25.8427 121.533 25.8427H125.523C126.573 25.8427 127.392 26.1507 127.98 26.7667C128.582 27.3687 128.883 28.2157 128.883 29.3077C128.883 30.4277 128.414 31.3377 127.476 32.0377C126.552 32.7377 125.166 33.0877 123.318 33.0877ZM123.423 24.4777C123.885 24.4777 124.242 24.2537 124.494 23.8057C124.76 23.3577 124.893 22.5667 124.893 21.4327C124.893 20.2987 124.76 19.5077 124.494 19.0597C124.242 18.6117 123.885 18.3877 123.423 18.3877C122.961 18.3877 122.597 18.6117 122.331 19.0597C122.079 19.5077 121.953 20.2987 121.953 21.4327C121.953 22.5667 122.079 23.3577 122.331 23.8057C122.597 24.2537 122.961 24.4777 123.423 24.4777ZM130.688 28.2577L131.948 27.9427V18.7027L130.688 18.3877V18.0727H132.578C133.404 18.0727 134.055 18.3387 134.531 18.8707C134.713 19.0807 134.867 19.3397 134.993 19.6477C135.189 19.2837 135.42 18.9687 135.686 18.7027C136.316 18.0727 137.1 17.7577 138.038 17.7577C138.822 17.7577 139.522 17.9257 140.138 18.2617C140.768 18.5837 141.258 19.0107 141.608 19.5427C141.958 20.0747 142.133 20.6347 142.133 21.2227V27.9427L143.393 28.2577V28.5727H140.663C139.403 28.5727 138.773 27.9427 138.773 26.6827V21.2227C138.773 20.3407 138.612 19.6687 138.29 19.2067C137.982 18.7307 137.618 18.4927 137.198 18.4927C136.666 18.4927 136.19 18.7727 135.77 19.3327C135.588 19.5707 135.434 19.8507 135.308 20.1727V27.9427L136.568 28.2577V28.5727H130.688V28.2577ZM149.694 28.8877C148.91 28.8877 148.203 28.7267 147.573 28.4047C146.957 28.0687 146.474 27.6347 146.124 27.1027C145.774 26.5707 145.599 26.0107 145.599 25.4227V18.7027L144.339 18.3877V18.0727H147.069C148.329 18.0727 148.959 18.7027 148.959 19.9627V25.4227C148.959 26.3047 149.113 26.9837 149.421 27.4597C149.743 27.9217 150.114 28.1527 150.534 28.1527C151.052 28.1527 151.521 27.8727 151.941 27.3127C152.095 27.1027 152.256 26.8227 152.424 26.4727V18.7027L151.164 18.3877V18.0727H157.044V18.3877L155.784 18.7027V28.6777H155.574C154.552 28.6777 153.775 28.3977 153.243 27.8377C153.005 27.5857 152.837 27.3057 152.739 26.9977C152.543 27.3477 152.312 27.6627 152.046 27.9427C151.416 28.5727 150.632 28.8877 149.694 28.8877ZM163.247 28.8877C162.379 28.8877 161.602 28.6987 160.916 28.3207C160.58 28.1387 160.307 27.9427 160.097 27.7327C159.873 28.0407 159.628 28.2787 159.362 28.4467C159.236 28.5307 159.096 28.6077 158.942 28.6777H158.417V25.1077H159.257C159.439 25.6957 159.705 26.2417 160.055 26.7457C160.797 27.8237 161.721 28.3627 162.827 28.3627C163.415 28.3627 163.856 28.2227 164.15 27.9427C164.458 27.6487 164.612 27.2287 164.612 26.6827C164.612 26.2207 164.402 25.8357 163.982 25.5277C163.576 25.2057 162.932 24.8137 162.05 24.3517C161.294 23.9737 160.678 23.6377 160.202 23.3437C159.74 23.0357 159.341 22.6577 159.005 22.2097C158.683 21.7477 158.522 21.2087 158.522 20.5927C158.522 19.7527 158.879 19.0737 159.593 18.5557C160.321 18.0237 161.434 17.7577 162.932 17.7577C163.674 17.7577 164.36 17.9537 164.99 18.3457C165.298 18.5277 165.564 18.7167 165.788 18.9127C165.97 18.6607 166.215 18.4227 166.523 18.1987C166.761 18.0587 166.901 17.9817 166.943 17.9677H167.468V21.5377H166.628C166.418 20.9357 166.159 20.3967 165.851 19.9207C165.151 18.8287 164.318 18.2827 163.352 18.2827C162.974 18.2827 162.652 18.4227 162.386 18.7027C162.12 18.9827 161.987 19.3327 161.987 19.7527C161.987 20.2847 162.211 20.7327 162.659 21.0967C163.107 21.4467 163.786 21.8527 164.696 22.3147C165.438 22.6927 166.026 23.0287 166.46 23.3227C166.908 23.6027 167.286 23.9527 167.594 24.3727C167.916 24.7927 168.077 25.2827 168.077 25.8427C168.077 27.8727 166.467 28.8877 163.247 28.8877Z" fill="#0A6EB0"/>
<path d="M85.1861 49.6706L86.4461 49.3556V35.9156L85.1861 35.6006V35.2856H91.1711V35.6006L89.9111 35.9156V49.4606H94.4261C94.4261 48.5786 94.6501 47.7596 95.0981 47.0036C95.2941 46.6816 95.5251 46.4156 95.7911 46.2056H96.4211V49.9856H85.1861V49.6706ZM101.888 50.3006C100.642 50.3006 99.6835 50.0346 99.0115 49.5026C98.3395 48.9706 98.0035 48.2916 98.0035 47.4656C98.0035 46.9196 98.1225 46.3806 98.3605 45.8486C98.4585 45.5966 98.5845 45.3656 98.7385 45.1556C99.3125 45.0156 99.9355 44.8896 100.607 44.7776C102.119 44.5256 103.456 44.3716 104.618 44.3156V43.6856C104.618 42.1316 104.429 41.0606 104.051 40.4726C103.673 39.8846 103.092 39.5906 102.308 39.5906C102.014 39.5906 101.762 39.6256 101.552 39.6956L101.258 39.8006V42.9506L100.985 43.0136C100.761 43.0416 100.572 43.0556 100.418 43.0556C99.9425 43.0556 99.5575 42.9156 99.2635 42.6356C98.9835 42.3416 98.8435 41.9566 98.8435 41.4806C98.8435 40.8366 99.1655 40.2906 99.8095 39.8426C100.467 39.3946 101.44 39.1706 102.728 39.1706C103.82 39.1706 104.758 39.3666 105.542 39.7586C106.34 40.1366 106.942 40.6686 107.348 41.3546C107.768 42.0266 107.978 42.8036 107.978 43.6856V49.3556L109.238 49.6706V49.9856H107.348C106.508 49.9856 105.857 49.7266 105.395 49.2086C105.199 48.9986 105.045 48.7326 104.933 48.4106C104.737 48.7606 104.506 49.0756 104.24 49.3556C103.61 49.9856 102.826 50.3006 101.888 50.3006ZM102.728 49.5656C103.246 49.5656 103.715 49.2856 104.135 48.7256C104.289 48.5156 104.45 48.2356 104.618 47.8856V44.8406C103.974 44.8406 103.358 44.8756 102.77 44.9456C102.336 45.0016 102.042 45.0366 101.888 45.0506C101.818 45.2046 101.748 45.4146 101.678 45.6806C101.538 46.2126 101.468 46.7376 101.468 47.2556C101.468 48.0396 101.587 48.6206 101.825 48.9986C102.063 49.3766 102.364 49.5656 102.728 49.5656ZM115.968 50.3006C115.044 50.3006 114.239 50.1326 113.553 49.7966C112.881 49.4606 112.363 48.9986 111.999 48.4106C111.635 47.8226 111.453 47.1576 111.453 46.4156V40.0106H109.983V39.4856H111.453V38.4356C111.453 37.1756 112.083 36.5456 113.343 36.5456H114.813V39.4856H117.753V40.0106H114.813V46.4156C114.813 47.7036 114.946 48.5856 115.212 49.0616C115.478 49.5376 115.87 49.7756 116.388 49.7756C116.892 49.7756 117.333 49.5306 117.711 49.0406C118.089 48.5506 118.278 47.8856 118.278 47.0456H118.803C118.803 48.0816 118.544 48.8866 118.026 49.4606C117.508 50.0206 116.822 50.3006 115.968 50.3006ZM119.962 49.6706L121.222 49.3556V40.1156L119.962 39.8006V39.4856H122.692C123.952 39.4856 124.582 40.1156 124.582 41.3756V49.3556L125.842 49.6706V49.9856H119.962V49.6706ZM122.692 38.2256C122.272 38.2256 121.922 38.0856 121.642 37.8056C121.362 37.5256 121.222 37.1756 121.222 36.7556C121.222 36.3356 121.362 35.9856 121.642 35.7056C121.922 35.4256 122.272 35.2856 122.692 35.2856C123.112 35.2856 123.462 35.4256 123.742 35.7056C124.022 35.9856 124.162 36.3356 124.162 36.7556C124.162 37.1756 124.022 37.5256 123.742 37.8056C123.462 38.0856 123.112 38.2256 122.692 38.2256ZM132.559 50.3006C131.635 50.3006 130.83 50.1326 130.144 49.7966C129.472 49.4606 128.954 48.9986 128.59 48.4106C128.226 47.8226 128.044 47.1576 128.044 46.4156V40.0106H126.574V39.4856H128.044V38.4356C128.044 37.1756 128.674 36.5456 129.934 36.5456H131.404V39.4856H134.344V40.0106H131.404V46.4156C131.404 47.7036 131.537 48.5856 131.803 49.0616C132.069 49.5376 132.461 49.7756 132.979 49.7756C133.483 49.7756 133.924 49.5306 134.302 49.0406C134.68 48.5506 134.869 47.8856 134.869 47.0456H135.394C135.394 48.0816 135.135 48.8866 134.617 49.4606C134.099 50.0206 133.413 50.3006 132.559 50.3006ZM141.183 50.3006C140.399 50.3006 139.692 50.1396 139.062 49.8176C138.446 49.4816 137.963 49.0476 137.613 48.5156C137.263 47.9836 137.088 47.4236 137.088 46.8356V40.1156L135.828 39.8006V39.4856H138.558C139.818 39.4856 140.448 40.1156 140.448 41.3756V46.8356C140.448 47.7176 140.602 48.3966 140.91 48.8726C141.232 49.3346 141.603 49.5656 142.023 49.5656C142.541 49.5656 143.01 49.2856 143.43 48.7256C143.584 48.5156 143.745 48.2356 143.913 47.8856V40.1156L142.653 39.8006V39.4856H148.533V39.8006L147.273 40.1156V50.0906H147.063C146.041 50.0906 145.264 49.8106 144.732 49.2506C144.494 48.9986 144.326 48.7186 144.228 48.4106C144.032 48.7606 143.801 49.0756 143.535 49.3556C142.905 49.9856 142.121 50.3006 141.183 50.3006ZM154.106 50.3006C153.28 50.3006 152.545 50.0906 151.901 49.6706C151.257 49.2366 150.746 48.6066 150.368 47.7806C149.99 46.9406 149.801 45.9256 149.801 44.7356C149.801 42.9436 150.214 41.5716 151.04 40.6196C151.88 39.6536 153.007 39.1706 154.421 39.1706C155.093 39.1706 155.681 39.3106 156.185 39.5906C156.395 39.6886 156.612 39.8286 156.836 40.0106V35.9156L155.576 35.6006V35.2856H158.306C159.566 35.2856 160.196 35.9156 160.196 37.1756V49.3556L161.456 49.6706V49.9856H159.566C158.726 49.9856 158.075 49.7266 157.613 49.2086C157.417 48.9986 157.263 48.7326 157.151 48.4106C156.969 48.7606 156.738 49.0756 156.458 49.3556C155.828 49.9856 155.044 50.3006 154.106 50.3006ZM154.946 49.5656C155.464 49.5656 155.933 49.2856 156.353 48.7256C156.507 48.5156 156.668 48.2356 156.836 47.8856V40.6406C156.682 40.4866 156.521 40.3466 156.353 40.2206C155.975 39.9406 155.611 39.8006 155.261 39.8006C154.659 39.8006 154.19 40.1506 153.854 40.8506C153.532 41.5506 153.371 42.8456 153.371 44.7356C153.371 46.5416 153.518 47.8016 153.812 48.5156C154.12 49.2156 154.498 49.5656 154.946 49.5656ZM168.494 50.3006C166.702 50.3006 165.309 49.8106 164.315 48.8306C163.321 47.8366 162.824 46.4716 162.824 44.7356C162.824 43.6016 163.041 42.6146 163.475 41.7746C163.909 40.9346 164.511 40.2906 165.281 39.8426C166.065 39.3946 166.961 39.1706 167.969 39.1706C168.977 39.1706 169.859 39.3596 170.615 39.7376C171.385 40.1156 171.973 40.6266 172.379 41.2706C172.799 41.9006 173.009 42.6006 173.009 43.3706C173.009 43.7206 172.974 44.0216 172.904 44.2736L172.799 44.6306C172.197 44.7566 171.546 44.8616 170.846 44.9456C169.376 45.1556 167.892 45.2606 166.394 45.2606C166.394 46.8846 166.618 48.0466 167.066 48.7466C167.514 49.4326 168.13 49.7756 168.914 49.7756C169.46 49.7756 169.964 49.6496 170.426 49.3976C170.902 49.1316 171.273 48.7886 171.539 48.3686C171.819 47.9346 171.959 47.4936 171.959 47.0456H172.484C172.484 47.6056 172.316 48.1376 171.98 48.6416C171.644 49.1456 171.175 49.5516 170.573 49.8596C169.971 50.1536 169.278 50.3006 168.494 50.3006ZM166.394 44.7356C167.29 44.7356 168.018 44.7006 168.578 44.6306C168.816 44.6166 169.068 44.5816 169.334 44.5256C169.348 44.4556 169.383 44.3016 169.439 44.0636C169.509 43.7136 169.544 43.3426 169.544 42.9506C169.544 41.7886 169.39 40.9416 169.082 40.4096C168.774 39.8636 168.403 39.5906 167.969 39.5906C166.919 39.5906 166.394 41.3056 166.394 44.7356Z" fill="#EA8127"/>
<path d="M88.2295 64.0865C90.0655 64.0865 90.5335 62.6645 90.5335 60.8825C90.5335 59.1185 90.0385 57.8585 88.2295 57.8585H86.0065V64.0865H88.2295ZM89.8225 60.8825C89.8225 62.2325 89.5255 63.4745 88.2295 63.4745H86.6995V58.4705H88.2295C89.5255 58.4705 89.8225 59.5325 89.8225 60.8825ZM91.6903 64.0865H92.3653V59.5865H91.6903V64.0865ZM91.6903 58.5695H92.3653V57.7865H91.6903V58.5695ZM96.665 59.6675C96.665 59.6675 95.711 59.4965 95.036 59.4965C94.217 59.4965 93.416 59.8205 93.416 60.8105C93.416 61.7105 93.902 61.8995 94.919 62.0615C95.9 62.2145 96.134 62.3315 96.134 62.7995C96.134 63.4115 95.738 63.5735 95 63.5735C94.541 63.5735 93.515 63.4205 93.515 63.4205L93.479 64.0055C93.479 64.0055 94.487 64.1765 95.063 64.1765C96.143 64.1765 96.809 63.8255 96.809 62.7725C96.809 61.8995 96.386 61.6745 95.261 61.4855C94.307 61.3235 94.091 61.2065 94.091 60.7835C94.091 60.2525 94.514 60.0995 95.072 60.0995C95.648 60.0995 96.647 60.2435 96.647 60.2435L96.665 59.6675ZM99.5256 59.4965C98.1846 59.4965 97.6536 60.1265 97.6536 61.7555C97.6536 63.5195 98.0766 64.1765 99.5076 64.1765C99.9216 64.1765 100.759 64.0505 100.759 64.0505L100.732 63.4925C100.732 63.4925 100.012 63.5735 99.6696 63.5735C98.5536 63.5735 98.3466 63.0875 98.3466 61.7555C98.3466 60.5495 98.6256 60.0995 99.6606 60.0995C100.003 60.0995 100.723 60.1805 100.723 60.1805L100.75 59.6315C100.75 59.6315 99.9396 59.4965 99.5256 59.4965ZM103.438 59.4965C102.016 59.4965 101.512 60.2345 101.512 61.7825C101.512 63.4205 101.926 64.1765 103.438 64.1765C104.959 64.1765 105.364 63.4205 105.364 61.7825C105.364 60.2345 104.869 59.4965 103.438 59.4965ZM103.438 63.5915C102.376 63.5915 102.205 63.0605 102.205 61.7825C102.205 60.5315 102.484 60.0815 103.438 60.0815C104.401 60.0815 104.671 60.5315 104.671 61.7825C104.671 63.0605 104.509 63.5915 103.438 63.5915ZM105.963 59.5865L107.232 64.0865H108.582L109.851 59.5865H109.158L108.069 63.5015H107.736L106.683 59.5865H105.963ZM112.305 63.5825C111.423 63.5825 111.126 63.0785 111.126 62.1155H114.096L114.132 61.6025C114.132 60.1265 113.52 59.4965 112.323 59.4965C111.18 59.4965 110.442 60.1535 110.442 61.8635C110.442 63.3935 110.883 64.1765 112.224 64.1765C112.953 64.1765 113.979 64.0325 113.979 64.0325L113.961 63.5015C113.961 63.5015 112.98 63.5825 112.305 63.5825ZM111.117 61.5755C111.126 60.4865 111.558 60.0635 112.323 60.0635C113.115 60.0635 113.457 60.4595 113.457 61.5755H111.117ZM115.183 64.0865H115.858V60.7835C115.858 60.7835 116.65 60.3425 117.496 60.1715V59.4875C116.632 59.6585 115.849 60.1985 115.849 60.1985V59.5865H115.183V64.0865ZM122.396 61.4675L124.376 57.8585H123.593L122.045 60.7745L120.497 57.8585H119.714L121.703 61.4675V64.0865H122.396V61.4675ZM126.21 59.4965C124.788 59.4965 124.284 60.2345 124.284 61.7825C124.284 63.4205 124.698 64.1765 126.21 64.1765C127.731 64.1765 128.136 63.4205 128.136 61.7825C128.136 60.2345 127.641 59.4965 126.21 59.4965ZM126.21 63.5915C125.148 63.5915 124.977 63.0605 124.977 61.7825C124.977 60.5315 125.256 60.0815 126.21 60.0815C127.173 60.0815 127.443 60.5315 127.443 61.7825C127.443 63.0605 127.281 63.5915 126.21 63.5915ZM132.045 59.5865V63.2405C132.045 63.2405 131.478 63.5735 130.812 63.5735C129.975 63.5735 129.867 63.1685 129.867 61.9265V59.5865H129.192V61.9355C129.192 63.5915 129.453 64.1765 130.713 64.1765C131.37 64.1765 132.045 63.7715 132.045 63.7715V64.0865H132.72V59.5865H132.045ZM134.018 64.0865H134.693V60.7835C134.693 60.7835 135.485 60.3425 136.331 60.1715V59.4875C135.467 59.6585 134.684 60.1985 134.684 60.1985V59.5865H134.018V64.0865ZM138.576 58.4795H140.493V64.0865H141.177V58.4795H143.076V57.8585H138.576V58.4795ZM143.071 64.0865H143.746V60.7835C143.746 60.7835 144.538 60.3425 145.384 60.1715V59.4875C144.52 59.6585 143.737 60.1985 143.737 60.1985V59.5865H143.071V64.0865ZM148.99 59.5865V63.2405C148.99 63.2405 148.423 63.5735 147.757 63.5735C146.92 63.5735 146.812 63.1685 146.812 61.9265V59.5865H146.137V61.9355C146.137 63.5915 146.398 64.1765 147.658 64.1765C148.315 64.1765 148.99 63.7715 148.99 63.7715V64.0865H149.665V59.5865H148.99ZM152.629 63.5825C151.747 63.5825 151.45 63.0785 151.45 62.1155H154.42L154.456 61.6025C154.456 60.1265 153.844 59.4965 152.647 59.4965C151.504 59.4965 150.766 60.1535 150.766 61.8635C150.766 63.3935 151.207 64.1765 152.548 64.1765C153.277 64.1765 154.303 64.0325 154.303 64.0325L154.285 63.5015C154.285 63.5015 153.304 63.5825 152.629 63.5825ZM151.441 61.5755C151.45 60.4865 151.882 60.0635 152.647 60.0635C153.439 60.0635 153.781 60.4595 153.781 61.5755H151.441ZM161.157 57.9395C161.157 57.9395 160.014 57.7595 159.276 57.7595C158.061 57.7595 157.269 58.2275 157.269 59.4335C157.269 60.6215 157.917 60.9275 159.204 61.2065C160.221 61.4045 160.59 61.6025 160.59 62.3045C160.59 63.1685 160.14 63.5555 159.258 63.5555C158.619 63.5555 157.395 63.3935 157.395 63.3935L157.323 63.9695C157.323 63.9695 158.556 64.1675 159.294 64.1675C160.527 64.1675 161.283 63.6275 161.283 62.2505C161.283 61.1615 160.734 60.8555 159.492 60.5765C158.403 60.3335 157.971 60.1985 157.971 59.3885C157.971 58.6865 158.439 58.3715 159.321 58.3715C159.843 58.3715 161.094 58.5245 161.094 58.5245L161.157 57.9395ZM164.028 63.5825C163.146 63.5825 162.849 63.0785 162.849 62.1155H165.819L165.855 61.6025C165.855 60.1265 165.243 59.4965 164.046 59.4965C162.903 59.4965 162.165 60.1535 162.165 61.8635C162.165 63.3935 162.606 64.1765 163.947 64.1765C164.676 64.1765 165.702 64.0325 165.702 64.0325L165.684 63.5015C165.684 63.5015 164.703 63.5825 164.028 63.5825ZM162.84 61.5755C162.849 60.4865 163.281 60.0635 164.046 60.0635C164.838 60.0635 165.18 60.4595 165.18 61.5755H162.84ZM166.961 64.0865H167.636V57.6245H166.961V64.0865ZM169.854 60.1715H171.159V59.5865H169.854V59.1905C169.854 58.3535 170.016 58.1375 170.52 58.1375C170.79 58.1375 171.294 58.1555 171.294 58.1555L171.303 57.5975C171.303 57.5975 170.7 57.5345 170.394 57.5345C169.512 57.5345 169.179 57.8855 169.179 59.1815V59.5865H168.612V60.1715H169.179V64.0865H169.854V60.1715Z" fill="black"/>
<path d="M0 22.577V63.207C0 63.9436 0.650669 64.539 1.46094 64.539H15.0084C15.8125 64.539 16.4693 63.9436 16.4693 63.207V22.577C15.7511 22.4174 15.5547 21.8404 15.0084 21.2449H1.46094C0.656808 21.2449 0 21.8404 0 22.577Z" fill="#EA8127"/>
<path fill-rule="evenodd" clip-rule="evenodd" d="M45.8968 49.5307V23.7433H45.903C47.7322 24.4369 48.5916 22.5156 48.1312 21.6562H60.9052C61.7155 21.6562 62.3661 22.2517 62.3661 22.9883V48.0698H75.3181C76.0547 48.0698 76.6501 48.7266 76.6501 49.5307V63.0781C76.6501 63.8884 76.0547 64.5391 75.3181 64.5391H47.2288C46.8796 64.5391 46.5621 64.3914 46.3247 64.1504C46.06 63.9094 45.8968 63.5759 45.8968 63.207V63.0873C45.8968 63.0843 45.8968 63.0812 45.8968 63.0781V49.5307C45.8968 49.5307 45.8968 49.5307 45.8968 49.5307Z" fill="#EA8127"/>
<path d="M71.8688 0C70.7025 1.12333 47.3582 21.6562 32.0183 37.4196C31.3861 38.0703 30.3548 38.2053 29.7594 37.5301L15.77 21.7115C15.5061 21.4107 15.1071 21.2388 14.6835 21.2388H1.43074C0.288996 21.2388 -0.367811 22.4174 0.301273 23.2584L29.3727 59.8861C29.9988 60.6719 31.3247 60.5614 31.7667 59.6774" fill="#0A6EB0"/>
<path d="M36.0399 18.2322C36.1197 21.9398 33.2653 24.9108 29.5454 24.9967C25.7703 25.0826 22.7871 22.2037 22.7134 18.3918C22.6398 14.6658 25.5187 11.7378 29.3245 11.6641C32.9829 11.5966 35.9601 14.5062 36.0399 18.2322Z" fill="#2F2F2F"/>
</svg>
